<mxfile host="app.diagrams.net" agent="Mozilla/5.0 (Windows NT 10.0; Win64; x64) AppleWebKit/537.36 (KHTML, like Gecko) Chrome/140.0.0.0 Safari/537.36 Edg/140.0.0.0" version="28.2.1">
  <diagram name="Page-1" id="aaaa8250-4180-3840-79b5-4cada1eebb92">
    <mxGraphModel grid="0" page="1" gridSize="10" guides="1" tooltips="1" connect="1" arrows="1" fold="1" pageScale="1" pageWidth="850" pageHeight="1100" background="none" math="0" shadow="0" adaptiveColors="simple">
      <root>
        <mxCell id="0" />
        <mxCell id="1" parent="0" />
        <mxCell id="MBwU0iPMZMX_Bzu19uHg-26" value="" style="ellipse;shape=cloud;whiteSpace=wrap;html=1;strokeColor=#666666;fontColor=#333333;fillColor=#f5f5f5;shadow=1;" vertex="1" parent="1">
          <mxGeometry x="-50" y="370" width="850" height="410" as="geometry" />
        </mxCell>
        <mxCell id="MBwU0iPMZMX_Bzu19uHg-12" value="" style="edgeStyle=orthogonalEdgeStyle;rounded=0;orthogonalLoop=1;jettySize=auto;html=1;labelBackgroundColor=none;strokeColor=#006658;fontColor=default;flowAnimation=1;" edge="1" parent="1" source="MBwU0iPMZMX_Bzu19uHg-2" target="MBwU0iPMZMX_Bzu19uHg-9">
          <mxGeometry relative="1" as="geometry" />
        </mxCell>
        <mxCell id="MBwU0iPMZMX_Bzu19uHg-2" value="D - EBS" style="outlineConnect=0;dashed=0;verticalLabelPosition=bottom;verticalAlign=top;align=center;html=1;shape=mxgraph.aws3.volume;fillColor=#21C0A5;direction=east;labelBackgroundColor=none;strokeColor=#006658;fontColor=#67AB9F;fontStyle=1" vertex="1" parent="1">
          <mxGeometry x="220" y="594" width="70" height="96" as="geometry" />
        </mxCell>
        <mxCell id="MBwU0iPMZMX_Bzu19uHg-10" value="enviar arquivo" style="edgeStyle=orthogonalEdgeStyle;rounded=0;orthogonalLoop=1;jettySize=auto;html=1;strokeColor=#006658;labelBackgroundColor=none;fontColor=default;flowAnimation=1;" edge="1" parent="1" source="MBwU0iPMZMX_Bzu19uHg-3" target="MBwU0iPMZMX_Bzu19uHg-2">
          <mxGeometry x="-0.4647" relative="1" as="geometry">
            <mxPoint x="150" y="620" as="targetPoint" />
            <Array as="points">
              <mxPoint x="150" y="640" />
            </Array>
            <mxPoint as="offset" />
          </mxGeometry>
        </mxCell>
        <mxCell id="MBwU0iPMZMX_Bzu19uHg-3" value="" style="verticalLabelPosition=bottom;aspect=fixed;html=1;shape=mxgraph.salesforce.web;fillColorStyles=fillColor2,fillColor3,fillColor4;fillColor2=#009A8F;fillColor3=#21C0A5;fillColor4=#ffffff;fillColor=none;strokeColor=none;labelBackgroundColor=none;fontColor=#5C5C5C;shadow=1;" vertex="1" parent="1">
          <mxGeometry x="120" y="810" width="60" height="47.400000000000006" as="geometry" />
        </mxCell>
        <mxCell id="MBwU0iPMZMX_Bzu19uHg-6" style="edgeStyle=orthogonalEdgeStyle;rounded=0;orthogonalLoop=1;jettySize=auto;html=1;exitX=0.5;exitY=0.5;exitDx=0;exitDy=0;exitPerimeter=0;labelBackgroundColor=none;strokeColor=#006658;fontColor=default;" edge="1" parent="1" source="MBwU0iPMZMX_Bzu19uHg-4">
          <mxGeometry relative="1" as="geometry">
            <mxPoint x="320" y="830" as="targetPoint" />
          </mxGeometry>
        </mxCell>
        <mxCell id="MBwU0iPMZMX_Bzu19uHg-4" value="Actor" style="shape=umlActor;verticalLabelPosition=bottom;verticalAlign=top;html=1;outlineConnect=0;labelBackgroundColor=none;fillColor=#21C0A5;strokeColor=#006658;fontColor=#5C5C5C;shadow=1;" vertex="1" parent="1">
          <mxGeometry x="310" y="810" width="30" height="60" as="geometry" />
        </mxCell>
        <mxCell id="MBwU0iPMZMX_Bzu19uHg-7" style="edgeStyle=orthogonalEdgeStyle;rounded=0;orthogonalLoop=1;jettySize=auto;html=1;strokeColor=#006658;labelBackgroundColor=none;fontColor=default;flowAnimation=1;" edge="1" parent="1" source="MBwU0iPMZMX_Bzu19uHg-4">
          <mxGeometry relative="1" as="geometry">
            <mxPoint x="190" y="840" as="targetPoint" />
          </mxGeometry>
        </mxCell>
        <mxCell id="MBwU0iPMZMX_Bzu19uHg-13" value="" style="edgeStyle=orthogonalEdgeStyle;rounded=0;orthogonalLoop=1;jettySize=auto;html=1;labelBackgroundColor=none;strokeColor=#006658;fontColor=default;flowAnimation=1;" edge="1" parent="1" source="MBwU0iPMZMX_Bzu19uHg-9" target="MBwU0iPMZMX_Bzu19uHg-11">
          <mxGeometry relative="1" as="geometry" />
        </mxCell>
        <mxCell id="MBwU0iPMZMX_Bzu19uHg-9" value="EC2" style="verticalLabelPosition=bottom;html=1;verticalAlign=top;strokeWidth=1;align=center;outlineConnect=0;dashed=0;outlineConnect=0;shape=mxgraph.aws3d.application_server;fillColor=#21C0A5;strokeColor=#006658;aspect=fixed;strokeColor2=#292929;labelBackgroundColor=none;fontColor=#67AB9F;fontStyle=1" vertex="1" parent="1">
          <mxGeometry x="370" y="597" width="89.27" height="90" as="geometry" />
        </mxCell>
        <mxCell id="MBwU0iPMZMX_Bzu19uHg-11" value="E - EBS" style="outlineConnect=0;dashed=0;verticalLabelPosition=bottom;verticalAlign=top;align=center;html=1;shape=mxgraph.aws3.volume;fillColor=#21C0A5;direction=east;labelBackgroundColor=none;strokeColor=#006658;fontColor=#67AB9F;fontStyle=1" vertex="1" parent="1">
          <mxGeometry x="550" y="594" width="70" height="96" as="geometry" />
        </mxCell>
        <mxCell id="MBwU0iPMZMX_Bzu19uHg-16" value="" style="outlineConnect=0;dashed=0;verticalLabelPosition=bottom;verticalAlign=top;align=center;html=1;shape=mxgraph.aws3.rds;fillColor=#21C0A5;strokeColor=#82b366;" vertex="1" parent="1">
          <mxGeometry x="459.27" y="480" width="72" height="81" as="geometry" />
        </mxCell>
        <mxCell id="MBwU0iPMZMX_Bzu19uHg-18" value="RDS" style="edgeStyle=orthogonalEdgeStyle;rounded=0;orthogonalLoop=1;jettySize=auto;html=1;entryX=0;entryY=0.5;entryDx=0;entryDy=0;entryPerimeter=0;strokeColor=#006658;fontColor=#5C5C5C;fillColor=#21C0A5;flowAnimation=1;" edge="1" parent="1" source="MBwU0iPMZMX_Bzu19uHg-9" target="MBwU0iPMZMX_Bzu19uHg-16">
          <mxGeometry x="-0.3888" relative="1" as="geometry">
            <mxPoint as="offset" />
          </mxGeometry>
        </mxCell>
        <mxCell id="MBwU0iPMZMX_Bzu19uHg-22" value="" style="shape=image;verticalLabelPosition=bottom;labelBackgroundColor=default;verticalAlign=top;aspect=fixed;imageAspect=0;image=data:image/png,iVBORw0KGgoAAAANSUhEUgAAAiYAAAE1CAYAAADTZCvuAAAACXBIWXMAAAsTAAALEwEAmpwYAAAAAXNSR0IArs4c6QAAAARnQU1BAACxjwv8YQUAAM1TSURBVHgB7H0HgFxV3f259703bftuNj2kEBKSEELvJfTeiwiiIIIKqIgF9ROJFdG/ilj4AEXws6MCCkgH6b2ENAjpbbO9zU555f5veW/K1tlN29m9Bya7O/PavHfLuefXAA0NDQ0NDQ0NDQ0NDQ0NDQ0NDQ0NDQ0NDQ0NDQ0NDQ0NDQ0NDQ0NDQ0NDQ0NDQ0NDQ0NDQ0NDQ0NDQ0NDQ0NDQ0NDQ0NDQ0NDQ0NDQ0NDQ0NDQ0NDQ0NDQ0NDQ0NjREKAg0NjVEJxvv/t69CdDNgfyOGMZsI5pMkUib/LOkApR5YbBrMiRU4cMUmPI80rNYIYLbyDcoRmd+Cxf8DNO61AfTYUlirE/DOfAhd0NDQ0NgGaGKioTECsWgR6MkME0s96+yuLju9+wwcbCfBIiHquR3efqCReNV4tgB2qMRzmWOE7QgMzkaIy18UcDltYfyVBrxOgFYgO1oY/MU3A6XwXC8Jg/DfiAGLUqfNeaepEa2hGJZ5jlXCIm7D6mZrg93prNpqu4v3Btr3+AXaoaGhodEHNDHR0CgeiP7Kgj8WLYQ5txaRCbPNAxZUsN2bbJwwYRqbleigpNRwZplmOMZsk++U4uTC4TzC4HwjAs/sgpXiB6BcG2EePyo/pMHlEWapo3NiQhjLP7PnqZ+UIDtsMP4fgcd5DPEcvj+DITgN5T/TIcRDJmJcQCFhU5EdMyyJj92afN8ZH27f+I67dGLMWf5el/falvex7Nz7Ud/f99XQ0Bgd0MREQ2N4Q07OQgE5cSnCk/bBebQSJ00wrKMpYTUkQkL8YxPtlM/gDucPRHAMTiT4iyqakX8oLnUw6r/b7WPm/00yp0XBQwTf1zMIqKd4BONkh4hrEIREHsd/EaL+4USHhKg8JSnlH3GxxvVYi1HJUpvXmO+VltqPPPYAfvdrB/FnnxWfSlD/m2loaIxgaGKioTG8IBnBG/vDmjUP5fX7GkeOC1nXR6PO/obJoizuEsRrgHATFx9CyAgKRFhfPFCWwzmCoxUZmOAelgVSa3PCQmy7C0vrl5FbU3H3gVveRNedb8KGhobGiIUmJhoauxYZc8VzXwrNJV0suv8876ZoCT0Bph1BGzeV2IxLBabaWqgdgQhBFPuQphTpEqKISZ7xoxh7uH/9zL8zwmBES/kf/BbYKWZblvn+yo3u1+tSbkttO1bM+RWaoM0+GhojBpqYaGjsfChV5CquijBM37hb5GOzZyevpu1lNWAuWGcX81yTUMPJ7iBMIoKUSFOL8D4VFg2mJm+1AZdM3Hy1JDjTSAIBtwJxohKLEWakuTnIRvuW0AvtLPXTDxfj+WP+jEZoaGgUNTQx0dDYOZBk5KcXIHrkZMyfvx+uMOP0Y0aMxli7AZJyGUwHHqOEyogXsbnvmMqMPg6nVAWPv6QJh40ewUAJRtJHhRGDEcatWqScwk6y99PN9rcfX4fHz1VKioaGRpFBExMNjR2DTOjKI6cgXDotNHv/vc3vRytTJ5GEa7EOwSlEVAyXOjxXKR6CWDDf+TSjhPjv9QO5y6g2YogvT6VPLePKklOeJlaYv5WILlm8LrUosdl94ZDfYKu/sXag1dAY5tDERENj+yIz8b1zDWbNnmJ8OzLeOxeRkpBTb8NkKbXY50SEeMpvRPiGZFjMqCcZQ4W4aVxZMsSdtLlZK8yYGwapsAliMuRnWeN69oPab7p/9HfQBEVDY5hCExMNje0Daap5ZiHMA0/CV0qmhD7OV/B7Og1pbpyxuGVGUA4+F3rKb0S4izBuoqEij4gfYusKi40fVUOY7pyDB/WJia+gUM+PUibM47efhhyCKFJuE/vN/77p/fjaP2EdNDQ0hh302KehMXTIHKjcAkPWfxdzJ8ciX6flqXNYksQYZx5EaR9+VhDfVOODwf9E7Oxlo2sCaGIyBBDaLQdL3ocymZznxpgX7iRmjYfGRrxZbho33/O2+59P3ylT6WsVRUNjGECPfRoag4ckJPVXo9TeG9+aWIprEA/FkHCYyHXGKINLpMcDX7R7ipTkZEsN8pYFTqsBtBlnW+ErJb3BJ4E5SePkneaiFSFRhvou+njJaufjpT+XvihB0n0NDY1dAE1MNDQKh1xRbzodMbLQ+N8JU41L0UjgJUUsjcjNHphkVLcSxITAz4AqEMyJO7zXqRPl5m0NFJps5A5TCoOXIxDkXlfwtuc73wYMipJetu+uUPTyJTN5V/KuCMNhCBKRPTBNQmrTcOvYGw2rceqEX6AB2Ywxmi5qaOxEaGKiodE/MjPppi9hzLh54X8aZeRIVpcCbOoRw6Ky3oxUQlw/KZhgKVSmZWf+nEZ34tTGpG8FydiGPM+Fx8UcYawwXMU1hBxgUxNWlMiIIJv/SJCw/NCNWSitquXHiMEwK1V+FErhpF24bcv4Jo7ch4l8IikHJU5aEhZqUNgJByZ1s9HOIjltRKReIeqaDJWPRVXZCS54GFhPpBmIePyWEVrBn5yBZatW2Rfu8S0sRU82paGhsQOhiYmGRu/ITEZ1i0J71VY6/6LVsemppjgLUYt/6hBJQESOEaYUAkZS3DzDYIhoG1mPxpPkxMs5ojHkObibKhGYJWTiNeVAK/iCl+AvzhPisRhCY6aARqNAaSlS449H+bijkS4rAbVCYFYZQtEKBNSJiIJ+CPvKhsn/tnpoGsr2kcrW1BHveDb/1c447aaTNkjXRnhdrTD5daXXv4h080sIx5v5Jgbatq5EpKMFFYIzidsYyXFWJaTbd801zexgTiDuo2RTVFFMlzEzytlYSXJrcxP7RM11eAxaQdHQ2CnQxERDIx+ZeXjFJzFxxpH0YStE90m1OiyUjhJRqZf50xPxCUmQZ4QR1zeXBKaMoKAdMmacofmQeKoWDp8nDa5eiEM4SaV82AkTsdoatFVMB51wIOiMYxCtnAlSPhWGVZ57BAmaf9QCrEtBKLOf6K3HhqzHOcQeZs6xc+GKUN6OTXDbVyKx6inQNS8h1FoHltgAO5UUJXIQETlIhJsHJ0vMSMn9iEexY4cr4hMjklG5ZOVk/sTMUpegNtTS9F7XyWO+idegCYqGxg6FJiYaGllICtG2CNUl48m9RglO95oot4x4TNpmiDJAkGCS7iXwY2gIlAHW832huHTyyT7FICwmpLoczRMWoIqTEHfsAoRnnwIzNEZOqvxj6bUp1vxEhclmWEcuCQkoBPFpSsYVNNcHJPOrl/PlSC/X3d23BD3/zjuWb17K2Vr8dNNdiDe9BLL+FdBVL4BseR1Ge7OM/hViDo0Rf1eK3inP9gbxKySrZ+N4nmdWEcps8ur6D52PTvt/WANNUDQ0dgg0MdHQ8KMwXrkJ5TOrcE/NhOg57mZPFGXxDL5UVwvpbjaYvNhebAOC5CU24DusSgLUDnABAc7EqQjPPAlsylFgkw5GuGwq5yBWZm+RFUVcWUiu88Vf3AwjPEjkzE/VC1kiwHJISc/L7s0hNdizty/ZfU6m/RwnNyKGcN2E8at0+R4evwMhGP5HmT25ycht24JE3cuIrXsF8Q0vwtv4FkqEX0sZP5NFfeLVzcS1I8FkxQBCoh5JpskTkXb3E+R/sAU6zFhDY7tCExON0YzMijd1i7koNMG9yROp4lVyVqJIA8m6PuSqB0F0izSxIJN3ZHCmGrGxqZxmxTTdAqQ5P0lP3RvY7yJEdz8LoZq5/XRSQTM8nzoYyBo7/AJ//jtqznelYcLj71EY+ZeQp4zkGndYzm3KRW9zcPdtXKB7mLREzns9hA+fvMhAoOx2wWZu11YkNj0F8sFT8JY9CLOzCRHO0WipgZ2joih4hMjbSMOcYKWMe0KfT17uf6TDjDU0tgM0MdEYjVBejnwS2fpDLKieRJ83EpEyJFIuETM8/LAVuUngLSEm42CyRWaelRlckX3LGJCYUE5kXOkEy1Ie7C6ujBATsd3nIbHP52FMOwjRsr0yZ2SSUNj8oiLoOfkq11V1VTSHmLDMv0EWFZq5dt9s1L3+DnHR93DQF+kY7DbB9feWa4T1+jvznXxFmDNjliqsDOFfk0Rqw39BNz4P8tLPkG7rQjTM73+Z7yfifz+Sdy4/VGgbFRZZ3kgpTq4Ue8JuB//vM+Hr8CcocrLtJ9HQGMXQxERjtEEwDeeFT6Ls4NPoy2YTmcc6CScknGJQl89ollQwgO4VfftW6rsnSsuiuwlEkAgDrCmFrpgFuv9FiOzzObDYLL7qr5C+Id3TsZG88/ac0Hs4tWZtIVkfk8wHXi/fa/gjcEYlAZkSfjcixbz/p4ckki2rQTb+F23PfA+VDZsRLuXEIcy346RP8THlH0Rz6hJtO7gOpfxQGA0x4tUaDfFVzhHl38AH0OYdDY0hQxMTjdGCYL732F3RmxFKf81tFtVqiAq/yE0ISnqbvAczx+QoE1DHZF0unC6GhukzMfaYW2FMPY6fJiItQq6M1hG5P1Q8i+uv85UvapZ69HUFPUhJ90sZBfBEll3f5uZ0rIX91HVoX/IQxrj8vlYILmpynuZBJbxjGGJ4VN/gzNb1wh5XbAyPdN5nfAoXoqcdS0NDowBoYqIxGiBVkrcvQ+U+Z5grWQPGeAniGnANmeYrL4xXGmT83z2fGBBkYoQLAd/H4+SGOA46m/leZSXA/qeg7IhbQCIzkD0TUyqAyHeCwOyQDVXNMqbeSUlfLqn+AbIbjQYEvrXcTKZyyPAv7jSi4/X/BX3uNhjxBoT5YyAm5WoVQzRFd8CtEc+JuSzkGkYtcVas9vab8zW8B62eaGgMCpqYaIxkZFSShh/jO2OqzRvtds8zqSnSlhKSM3l7OT2BBn8QEeWSG0Lb3ZTSS5gv5VNTE0MaFlL7HoLogd+EOeEYEUaieE7GQzY3ZXx3FsGQzRnb0xwUhN0S3+wTIHBsMHo75CiDjPIVKgoVbr/8Z/17SC79EfD8w4g4rSCVUHHI21XMyDgLM8djnllmGEnqPvXMu+5pp/4CIiGLJigaGgVAExONkQo5Cbx9HVdJDjY/ZG20Bl1p16Micbrh04Is8rJxZP7wkJ/bI1+ZVy4cnoogsRm8JNDOLIQO/waih18DEqpV0ST8leb7RAPCQ/s8c9772Vwf3btpNoS3t09ocNjR3ruZ+kfmnvFz0MBzkVq8CO4zdyLcUg+zSilTjPo5Xdh2vGke8RyL0+BaF40b7IW1X8V/4at30NDQ6BOamGiMNGRUkubbjDOqKsx/2U2uZxpE+CiSTPKxgo/GuplxiIxg8YIziR8NDA4tRdeRn0f5wq/xqaesZ3aPXvhHll7kuLBqQrFDkfUNTiP5zm/Q/vItqKxbDzYeCDnEzzC7PU/IREyVZ41zaccW857yL6cvh07MpqHRL/QQqDGSIPNIPHIJyk86NvIKTafnuCnDoSpDurSjEHcb00zwFTUzVOp5l5tsEhVjETr+ewjNvRSuEUGCbxLlRMP0iFRSZGFeuZ+/v+5xuxZMFCv0pHoS8x9G++onwf77TRgrXkVpLX+DW/ocrquZbn/J5QYBToc9t9ylZS0GIqGtbeuSh1feiFXQeU80NHqFHiY1RgqkRM5+YpyOcezfdiPnD4TmpUcTIN62mPhVoTe3ja+2aTWMc+5GeM4ZcuJhzJOZTC1YvlMrlENJd/cQ3eN2OYLCAn4mN/Um/5FseBXew1+AufhVGFO5uY8YoN524A0i+67MAUeYxyij1S7dtNq7cPJN7n3Q5ERDowf0MKlR7Mg4frDbjb8hVHZBqqPLseCYhBgIQnczRGEwE42IyGFU8Ql+ALfVQ5yvs8On3YjQvl8GMUzhYSIqqUDML4KcBBE9WcdaonvZsIZ4ZmlODcL+oyNIbH0DnX85AaUtrYhWiWRt2ZpCmVpJgwEx8kLRHQeuWZ42EhZ5OvYJ9zho046GRh70kKlRzJADOrsKUXYC3sVGMlMmqzA8yljgHEqyJGFQioXY0FFuH11AvRdD5PQvoHyvRXwBHIKY0Fymqv4amUvJ+ohocaRYEKTwJT4R9U03xEFq2f8hfv/XUObVwyyLQFaWFubAoTjIEpqf/p8xlxnUIFXupi1r2QkTb8RyaMdYDQ0JPXZqFCukBL7pFsyeOJEu85pMQt20qgJMDRUi2p2UBBiw1fsziOthazND2SlfQvSQ7/Npg6+qUw6IZUh/WC9zITn56f3jC12GQnewogRvRrAY0pxMCMNc/IVvIPnkDzFGJAUutZRiwoYqbuRRVo+5XFObQIid8j4X+qT3S2hyoqGhx02NooQkJez/zBP4KvdxuxGehTCfL5IqgJcESgnLdzrtT8ZgomAw4ytiE4bLkGiz4dXORvhjT4BWTAFzHTBuujE8P78IzR4ok/4sh5hoX9cihnQ9EW7MkSAmHK7TiNR958Fd+hzKS/nbMaNHwemhwBOOuC4cozJkdsH+VckV3rXItlYNjVEJPW5qFBsUKfk1fszC1pdJp1xdmkqjkHXppR+AwQLnRjW+B1GgtK/hnm/nibVqm4dOawLI+T9C2e4fU6tnMTFZJJsMza/TkiUfPYmJtuWMHMhCifyZmzKZ7JtIPPJFRFY+D6uW5mfm25ZzMDikhJkO6APWp51zoJ1iNUYx9NCpUSyQbfWNq2Duf5a5mm1wJ3OBxKGUkxIvu8BUJdoMTkBYJsGWJCx9EhNOK6grM5l3NjB0HnsRxh3/f7JmTRqdCLmlSBhM1vbtLaEZ/LNKdM8Mq3vXyIEIMxZh4NK8A3S8dzvIfdejpDwJFiLZdsUMDFXscN2YQ0u6TBJlDW++5E074E4koTPFaoxC6KFToxggnVz/dRWiZxxDm906hITziF8RBfm1bIKJwc+52q9yIUw3YaTiCcTDM1F2+SOwqveQ1YXlLsTI+IrkluTTasjohuC8RLogdaH9L8ciuuxVRIQDisS28AjhFGt4Ip0+HQ9sWueMnfwNNAenhYbGKIEeXjWGO6Qz4JL/Zx04r8p+xemkMCifF4S2HtCFTJREQEpyx/Du47mgF46o5iYcB9DVDthHXory4+6VFX7VIUnGt8Dzu0ivFXx17xnF8FToObXQvPKPCAv1hNUDZaIm0raLHPwQLq3yjESEHRm7GC9AO8VqjCLooVVjOEMsQ+34XfhsLGz82m1hLlUleIksXR+EdkoE1MEvckf8qjF59W0spayYCbAOgo5QFSKffQWhEqWSZHsDgXJp9WQEBvH/1qHAGt3h8HZjyHw5CbQ+eBnKXvobzMm8rbiDqEbd57HhmGFOSCqNReSS9Leh/U40Rgn0+KoxXOFncg1/GmXp//WSxCEIUsv7GVw9P3dIphnLEjlQVYFzmjbztxHvGwTpdXzE3/tsRD92n1ROCHNUEqxMCbxs9RoiyYl/XM/Q5Ww08iF9mdKwefuxeFvqfPunYP/3JZRNMfILQA718KAOKfHM9k73morr8WtocqIxCqDHV43hCElK3LvMG6kT+Y6bcB2DpMz87PI56cSzdfvgsxbkrVaZiKsIg9hp1NshVF90H8wZZ/D3Pb8H5O6vlJcsMclJX+6RbpWBNUY9fMuhSz1Q0ZwoRbplBdK/PRrRdCO8UguWZ2PIQy1v867LbGMMs1pbcH3Vdd7PoM06GiMcmphoDDfIQdf7bcX9xEmf7XUyh1LPhPQIFAvFvppsNjJH/RlQC1HSPgQ0pdE8bg6qr3wbSa6PR/hkQahYfOYyjd6ISTabeN6pNDR6A28nNhc0TK6gtPzlNJQtfQRmtUjIR1SkWPd2WuBBPWamaTlCyS7nr9HPexdBkxONEQy9/tMYThA+JY57R8lPWTp1tptOutR0uFIinAyDSq99oftgz7e1LbAwRXxLGq0LzkH1ZxcjxUlKRCgl1ILSQ5D3EghICc1sgRyGAh0fodE3hL2RULiew5W5h5G8+DfoaHRBhQlQtuGhcAlOaigLoYO5ESv0EffhyP/6BzKgoTECodd+GsMFcgXYdWvkz5ESepEXZw6hwnzDZG0S5orw4EHwaGH2sTkp4UoJvfRXsOZezU05NgzhZ0IsuIYhTTTZI3p8pJep2eRf6l/fkdb3NEGwvXYy0SgATKp8BKmWt5C+9UCUl/H3LEv5NA0WRLVUxjyHhGAmbHpr7Dr7i9A+JxojEHp41RgOkNE39t9iL5pN9mFOmrqcpRiMpKGq9kJGzdACk1fJQmtJF3EnhvBnXoNRMxdI8Q9C3HzjH8OjSg/JCiGuTz5oJhtKro6iVBSqEmnlJTXR0OgD0qzjccbNFZTkRiR+djhK6SawmEj05/VMyNcfSLAtJ8meY9MSajlh6wXrssSR0GYdjREGTUw0djXkoBq/LfLrGMhnme14MGzhSgipUDDix8gU2FSFs2CXg86SWSi/djH/W1QCFpXScqJ3/Bwl3YWPQB/J18ezficaGoNCkImNk2rXoyAGQeNv90X11ndglkAqd4r7DinvicvChuHVsLvMj9hXQZMTjREEPeJq7Eoon5K7Qt+Ihl1OSrhMLcrQ8JWkIAcGQzaHyIAQsjmF0+KgZdJClH/+fU4pRCXYXIdZn4r4f3anOiqZfXfoLqIxRARRZISbDWmSMwmGsVe8jZYFl8JuhaAWOUrIoGFwFdAxWrwrm27HjUBQM0pDo/ihFRONXQVpG0/83LgrEvM+5XYwxwD185QEA3pgNyE5ocF9gEaQ2BRH8vSvoerIm/1B38vsRkj3RGwaGjsHyhjIVTvPUBHn/NX6/r0wf38ZSmtCfrTZEMAJjweXm3WY5cVwm3GJ9wWoBq7r62gUNTQx0dgVkDGTm75dedbEyR0PeK3MkxldRdSCKPFLgkiYIB9JYILJ9zGRvxGlqXRtduBc8UeUz7qYK+eq1k2uCV8TE43hgS5u4WG8PZYgtfklNN1+OCaONYbmvhqYJxlXS0qY+aHJTt7jk85jGFpMsobGsIEmJho7G7LNdX7fWlAyjbztbLFtk8rYXRVOyYIKviQnFwny0s8zORhHOU9JgtoO0g38nc/8Cda0jyLN7fWhzJisHFnz8rLpJq+xS5Hgr5Dvf2IiVf82vFv2Q2SSyduzwzm5lZN3eADkNGyZvn6cYa5+N7X37rfgPWjlRKOIoUdpjZ2Ohlswe8xYssJt4OYb0zSDKBdPmF74f4bM6kqzykle9WCxnfhbDOAOEvUOop97C2TCPrCZKktPeqZH09AYfmDC1EhhNy+Fc9sCxCoIXEpllSbCChc8pNM27ysOI254hmm880xq331vxTvQyolGkULr2ho7E+YjpyA8ZqaxwmviFnfLMJXTaqCEsBy1xCcnwnzDgvFV/fQ4dSFGAslWhuhX34Y7YYFcGxqSlADoNW2ahsYwg2ivnICEqucB169ERzMn5SKZoDt4Mi10RovAsFel3X0OLn/7sc+UjoWGRpFCLyc1dhaksyv7u7mBrfMmElNkTTOJoBnZmjVZY43yJwneES9hhBcqiit/bawDKr/6Brya/WDCU8nXMq3Z7bavbuYawx9uyzuI37IvysZTFd4+CNVElnLyl5kOZzshizWQq9k46DBijSKEVkw0dgbE4Oim/0KWsDpvsiIlFglIgzDNZNSSTMqSIItZ0EQNtZ1toClhofzG92FwUmJ5HtTePqQVJyAjWi3RKBJwEkKr9oF5wyq0d4ZFEH1GPywIItpHiI8el00Mj6VtjGV/MF6FTl2vUYTQS0mNHQ3phOfebf2RdNoXCw7BjThZi4tAoa2QD95NHRYqv7IcRnS6UlpE5WDaPd/JYA+sobHrwfxK1m6qDqnv7oZYrc3fNDG0on+cx4cpTVHz3uhnk5dBp67XKCJoxURjR0IwA++D75lHUc+7GK7hEo+SQesYfmhNxzoPpde+BkeSkrQ6OqUqzXxeem9tvtEoPkhyzYm2ERqP8FffQnoDVGQaGWxbFlkKCWVJz4mUk0/Evxs+FUB/pbk1NIYVdEPV2JEw1lyG2mnHY4tbZ3oGZYF3qkw0JUALYSmcd3TUu4he+xKMcYfK5GmE+um+cxLW68asMSLgeZJwu43vYutt+2JilRA7uoXPF4i06bqhatPAMmcy+T62QIcQaxQBtGKisaMgpeNpxxlrnS3UNYyc1K05ZMQbIKmr+KyrwUXommdgjj2UqyNelpQIVxVkY2/0iKsxIiAKTHLybYxZgOqrX0XHFkfVZxgCQm7Y8LbyTjMbK9FbKSgNjWEITUw0dgQkKXH+j7zoNphhw4jILCWD9kelJpezXbBP3IvQ+IW+hdz3mc1hM1ot0RhxECH0rofI+ANBPvt3JDZxckINuCoX4SDgcZ5jUtZGIulfGU9D9SJdU0djWEMTE43tDRnbu+Wm0IUGKzlM6M+ekVKkhHgZFiFFD5b92QOiIN+WFFLn3ISS3T8uS9+IbPXyGB7NHCc3IFg3Zo0RA1lRkkoH79Lp5yF5+vfhNKRBbUuRFpJNODgwuMroGp5l0mOaf0JvgIrU0VxeY9hCy3oa2xvGcxdgzLyTjdfs9bCp4ZmyogfrqWv0NTLKvGpNDroO/RTKj/spH5sdPg7TLPEgLG9vPcJqjEy4qhClSxGddhS6rDhCy54FIkEXKKDlZ7Yh1LOJG5vonnjWeNx1x2vohIbGMIUe0zW2J2QyJ3afudFbz8ZzLmEwkPykadTp36lEDKRdDlpq90PVp96EzXcTadhIpqk66liSU2uNRGMkg2V+pHm7DxELdfcfg9r3ngUpjXFRUdTdGaAPkPzP08RjpmVuNa5OTeB/CruQDQ2NYQY9smtsLwim4KT+hvu8TZgUCBwkM7j6lYG9vs3bMk2a7aLdG4fKT73GTeweDIJsoilVTtg/lU43rzHSoVRGJipoc1Licnvm+HOeQkt0Kmi6S1aVKuwYWYQ8kxEX4527ySNQpESr5hrDDpqYaGwveE1fNw8NJSvPh8fycyawIGaG9RnyKGkGNdDUSVF6wxqZm8SgOWnTfOsNkyXOgqywWvDTGPkgstVzBsH1R9GVqq99C4n2KDzLVSUa+gsj9pMQqpcoGuhQznBcw6OntF+P06GTrmkMQ2hiorE9INNTVs4KPZBuaPVIttBNjqjRT1E93zKTqLNRcdWjIEYUARMhPTYNhmlNSjRGC4gva1DOLxi8aDXM698GW8t/p+K9/vpCfr8j0tmcGU4Hc8sOiv7Z30hH6WgMK2hiorGtEG3ISfyvcTvpcMYSU+kaEjkchPWSr0QUUbUNF7ZpItXigpzxBZgTj/eL+nXbmOSeUJMSjdEJj6uKpmfDGjMbyct+h2SjNySObnI9kjW4pcl7wvdBOW7puUBj2EA3Ro1thff+98wjIjT2Gc9LO5ZLiYzAyRVGiIrwFW97uQRDuJRQE1YiBWfivogdeitYmmsi3UhJYAgSL62VaIxmSGmDWpy7M5TOuwyd+54IxIeSWtAjLO24Ydc9f9P3zMOgHbY0hhE0MdHYFkiFedZueCbVkfIMxlmGIBW9EIvecpWIrWK2i5Z4FSKXv8A3TMIL2dLZr1/oFK8aoxyMs3qXpTDmjH8jbivT52CZBaXEYO2eM3Gq8eyihbIva0dYjWEBTUw0hgqZSK3lx6F7WKdhhqmr0p15PbcKaAZl3WrjGBSJBr7yu/pRmDTGN4zwkdHsoYgEDrCZxqpbrcYohwh6oyQEQkMIffkNtHGTDjEGryV6hJgs4VhXHkFvhS70pzFMoId4jaGC/ulTGFc5xf6E1+WKAjYE+XnP8v1CelnOeY02yHnfhTXuIIhMDf6W0NDQGBiqGrELo2QujCv+gVSDw980/BftkcOkNxhiIdEGd+Je7JpnPoXJ0MREYxhAN0KNoUDWwrF/G12ORHKWaVtU2mpYjlzSnaR0A/MMNIZqUXvtRrUb1Y1RQ2MoEJE6wi+r4d5DUNv0OphpZE2nrAC7p/D1EvHENVgV+oS3B/z+DQ2NXQS9PNUYCtwV3zXON5mzJ5ys/UYYc9xC2AVfyXW0pVFy8WMqtQllmpRoaAwRgbN41QV/R3sbN4VSvxROoU4nRKSAJcxyMbPxZpwD7cWlsYuhiYnGYEF+egGis6dF7nNaPIerJRlOMWCVX6ZWd+kOG/ZFv0Ssel6QXQEaGhrbAg9mbDLoJf+As5Gp8HxrENnmKaNeg+XUzDX+edspCEE7wmrsQmhiojFYsLPnlN3htaZgGoYpquHADw8ewHqjHGGTBK0T9kXNnGs4Sengq72EDlTU0NhmqORrpbNOR8f8o8HiacAZRN403odp2DbZOsYuPcYUide0I6zGLoMmJhqDAf3VBSidPit5CXW4FVtmnmcqGMePviH9kAxGPNgJFzUfe0zmYSCiTKqoI6aHPw2NbYIqNuwgzX8p/8i/0Z4Oi/TzgyP9TNpivco96TkvnIky6PlBYxdBTwkahUIMUl7XrdbTYYMcQ920HMhEzhGRIl4kVSOBaToYDLu1LifuovPwb6By4fdVOR1iDGz+0dDQKByiJg7vk62v/RCh/3wdsUrTr1VVOFzeO+1S9mb0ShwIv9/3eip+pm8v6tl9j34W9JhnZTZZDY0hQc8JGoWCLr42NGv+oVjO6h2PECa0Y05MaKZ2DRVkw8tJXBIUBRbVUflnralKVNzQLGuOMR2Fo6GxQ+BwNVIUwGz+8VTUmBsg88WSAv1ZOdtIm55nlTO6YT39QqzZu690LP1uI/GaKyYYh9hwU7SL91xqJMosdpQx3o2gq4Rl602Iz1zatabrA3c81qfsSMg0nEjTevJmIsFNTR55p7XCXhpfya1NLVh/0v2oh4ZGN+i5QaMQyFVT5110SUmnMYevyKgy4ygILkL7W5TxQbGjhSF82YsITRPZrz2lskBDQ2N7w0Wa968Q6NaX4d52GKwxYSh9o7AIYFkCgltdjQi3s5ZxRbSZ72rxnylP9VlKshtCKTTdSlAodzMZqsx1VOG/EmJyFJFCaYhvH1X1sOwk22DVMNq63NycqrLvf38J/msksfbFRnR8dT/EySIdITQaoecGjUJA1n8DJ07Zq+RRNDpMljP1xHhRmETsJFzYsy5A9Ly/8V1dP2O9dvrX0NgRSPFXSFQh5h2t4/GrUfHW7SARCzs2CrhbcaxCdxJialAEixMeYvJfRIZ9M+ShzHOwqeu5zRuMv25x3Wceeh3rFmkT0aiAJiYaA0G0EZb8nbHKbGTTDMugaoXkDWi7ZoSJEuuotyMY8+WtfMFWxgceDwUEFmtoaAwRQXScw38zU11I/6gWVnkSwvo6nCEKfVJP/OR6qmvANR0mctgyywAp9eClYLOE8crGpHfvqrfdJ4/7E9b5u8oxChojBnp20BgI9OXrMPuQA8PLUO+qFJNCynUHUkyIJCZOswv3yE8hdPxdfFEU5+/HoJudhsbOgFoEtD3/E5Q//RWQimJSKf00BALBQkiMKZSvi4RZqNRFvIus8NJ4ZONa7745P8GrhGQGpD4ddjWKA3qG0OgPsoMnfxdZZbWkp1GaW3yDDKCYCH+4MDqTIURvqOfLHgPB7kQ3Ow2NnQCuMghfLi41tP1kIiqjrUDaULJE0UKMOZSbqRxuFLaI6cZAKjuQBJIhly1bsYHcNe+73v/6G5OcnTSKCHqG0OgP5N1vxPbde176TTQ4+fnT2ACrL751osMFufC3sPb8pEj/JP+jOjWChsZOQ9Bpu1b/F+TuhYiO5X94Jop9rhZiisyZRHwHFS7mMsPkagr/O8q6Uizy5pbO+Fenfx6v+LtoFaWIoImJRl+QHTl1l7WYJO15lkPyw2j6sVd7fLAQ1p4WZxqqrl+NFB9ALKISSWpioqGxc8GEGYR338Qfzkd0/T+4NdUEGYkiAlEqrueKqD/LM8r4IGWRDZ2Nzi1lX/V+5W8lBiAGraIMa+hZQqMvsLevtA4MldD5lm0MisAKztJezxD+2D1yJWORwOFVQ0NjZ0NE93cwB9ZHf4tWlPG/R3DhYP5duckZhulRJAnzWp3JpTHzl+yfVrLr18bq1Z/FXgjsQXpQGrbQxESjL7A5+9I7WT1fbhkGyWqn8qN+9uKDQtqCM2U6YmOP4n87oGnd/zU0diXKiAPTqEDF4RfAaWEyYoexkSgaiKRKwlQlMzgSSvnYJXjYRhKK2HTq9MOi7ybviNSxG7EAyHOW1RhG0A9EozfQ205BOBxj+xCRDMFT9XDgGUoO6ce/hFEupTalUXHsN5RB1zTBLOkKCw0NjV0DIgsG83540HfhpAgck408J3RBtEQGt+Alxq0grYHHCPH44NXosFCnW4tpxlvsbtrofNs4BVnfEz0fDhPoB6HRG7yTDjG/73WKVQcb1OglUs93TJkNusenIOiIK6NzGAwYOhpHQ2OXgUq/EiM6ETjp67CamXIcJYVMAWyIn+1iBNmpJTkJ0hvwlRblZp52/k4LqaZj2SPsXrIhfTOuhSIo2sQzDKAfgEZ3yGRF3p+NDmwySokppRK/k/fXXJhUU5wmB/jkg2AzzoTQUA3khAgz6BanobEL4Xkp3k3DSNyxAKXtK+BFRDKzvvo28wsOc9WT2DJNqyVSyksFlfp5RqisR8GkmddVR+nhWqryj6jurxxUh4vzLRNlzilfNIVNwsx0J4nQk8ilzktQqakLT2+tsV2hpwmN7iCPfjWy8KQ92dNo90uVDkhMqHrxrVvJGFRetxEpLwmDCqUkmt1LExMNjV0L3pUTnEREnQ403LoHKhL1CJWR/H4ZEAtBQEQmVt71RTFx6cNu+GnbMtvwz4z82Zv671P/WCKjqyGmearK7NCwX1wrqLmzC4V74WcjckZCWqy5lFImGJe3eM3L9pkzfiszy+ow410APU1o5MJPPx9exaXeadQIdN4CFBPKTTgtQOlHH0Rq1pkQyRk9acLJUUtyz6KhobHTkeKqhtAuVCYTBvud25F66ecItW3iXdwDCxlww6WwrfEoqxyLdEkZ3Oo5cCZOQWXFwVxxKeNEw/apBOUkI6r8x0jATgwutzr8WF2q3/P/044oBPg8mJ2At3EJop0r0dbahFhbPYxUA9yki5DF94yKYoGCLAizk+FX/PPgCEVDONXvSGdd4pfJYJ7nOowYY0uJ19z5Z/qSdym5T7rPaoKyE6GnCI1ckGeuwuyFR5jL0URy9I0Cwv75lp3WWJRcvVkutPwxKfPSxERDYxihe++2G7ky4oCaET4FR7ilJiI/DgKLe3O82BaPUam6iEKgdjMS6VZ4Hz4K+8NnOWnZCG/DEn4tcYT5pVgRochQlTl6QHPytiJ7U5j46pZpoIpfa5Nznvl595/QOVB2GvQUoZGH9tvJ30uS5nlqsMntf733Rc9XZd24i64jv4Wyo76tHF5lMrWcQUsTEw2NYQhVLFz8dFTZb6VySiNuJycQpfnEw5+7c6WDXvt4XyCy9rFwXAEzGJJ8tAhLx1wK31IEm6stXstbcBY/BCz9C4zWBk6cuhDhJIVEhWsLUeYX/7p32IDCVSCPXySNpUk84b35Vj0746gfYAu0erLDoacIjQBk0UIYN10ZSqGeSJc32feClM99BOe4wo/EZUjHudT6pY184BgrfP/hu8Up+PW4dGPT0BimYColQOCWGugGQSRdbykSh7bW8CQJYf5JmJ9IgAZn6kWGSXpNcOpeQmjFC0itfxLe1qUw0ylwK5N/6RYnKjuAJxDlFOM5HucnHjFKLeI0Offf/7p7wYX3Za5Uqyc7AHqu0Mjg9WtwwgEH4HG0WuoNYiOvicj8Jd2GI+LwJQ5BcsJCRC55GjaXZw0aWKCzm7v+YYqpvqmGxmiD77eKQIswgjdJzxCV7v6y3d/r6/jd9887D3rZIN/EwtWcTrQvewLmkl+ja+0rqEp3wiilvp9IsON2yDbtExPhvSvok8tsD26EmuVwG7a6c8bemFrJtxLuOg40tis0MdHIoPWn4b+Xk/R5JEMfPKXpstwOnwtBTFx0NjJY172OcPUB0owjZNbududCBy4NDY1dix7kIaNu7DjkcZC8N/LPL9UVphY6YpRyvU4klvwL3hvfh7t+GcrD/P0YZwqsCgbp4MPXthAUkqm/A988zQ/IPId4xngYibbwDbFr4j+CfynQ2G7Q84SGAPnpoYh88YtmHJvkaiNXJkGfzUSQFm4ybqmajaorl8l0alKmhU6lpqGhMQQM0mUk2FywAta2HMm37oaz+EGYTStRWklUxWG2vcw8/oVxs5HtEccqYVwtsRY/++fU/sc8mxGUtGlnO0BnftUQYAfuhyvRLAiJ121Y6D+pWqrDQ+igq6H85Q1/D90/NTQ0hoBBrmjE5qLuj8FSMCv2ROkxP0blFz4APvsfxMv3g1NvcxMM5wyGpC5Q4sZQxyZ/XOMKskk900lZntvF9l746dLkO9+xFuScQGMboRe2GtKc3PKb8LsVnc58wgbTJjy0d0QQ+2Y73ynJpdNS/30359DBS0NDQ2PHIfCPoUFeSI5k/Usw/v01sJXPIzRWOMkavu/cdjgfFWHMYI7tMHNiiHZstX9Qfr33P9CmnW2GVkw08PNPY49KK7U3owaXPgtsEqKYX5rB2/sUmMSUYYVZBGREqyYaGho7D2LUsQUpcUTiWgfW2MMQuuI5hK57A+21R6GjOcmZhMtFDyojCqWRhw1tGlRlxAgxTUrZVtcuK49+I3Fv6A22SK/IthWamGiw8/agF3gdFu/JDjfHFmKP5cYaj5tx4kD0sM/LtM4myTXfBMHCBnTf1NDQ2BkIRh1RR5mvlbiCa/gZbjlPGb8/Ki59EuGvfICOyQch3WTDSFN/dBpiUE1QxVicj3gWOm0v0o79MDOUXPJDTMEOTbIysqGJiQbGlLCLmCO6MytQ4/BAuM22g1gwKhdI2ZTk9UHdFzU0NHY1SOZfy1PmG6N8D5Rf9CrIFQ9hS2Qs0s2enwcf2wiZzp4KA47TYGPeGHMd+0FoT/iBRNAYFPQNG+V46QJUh8fQ+UAXE2mfjYI6KJFmnPA+J8K0Kv3ur5uShobGcIXKzRTkVgpNPQ0Trt2Ezot+hZZkGF7KhRPaLjHRxCTU8No5RRnPlnf+rORSKNcXExoFQ88moxzJGVxybBdUgxIinMYKCKgRuko6CZQevEi7kWhoaAx/+DMd8f9RxZPTqJn7WVR9tRmd+3wMyQ8dmQJB1QrclsgdA5TCcJpdp6Qs/Xv3N/gVlL1Ik5MCoTX3UYAlF6B0dQVqa0tRFWeo4ZYXtxNI7R0xJk+eRH4Bh40xSLeszv21DL5hW72F8kVb+fKgUrciDQ2NooKiHS6IQ+EZIsErgV3/ClrvOR9j0ptASrlp23NVdA8plKR0q7sh86cwB1FiwjJuJVfYX4Sus1MQ9JQyArD8GtQ8F0ftzCpzt32rWHVj2D10ejWOc1JkgunBNseRWiRDVHL2ZEp1NBpRq4MEY1Ip6ZG/pC8QeEkHnQd9HmXH/rybb4mGhoZGEYL5NcH4UBZ/8adwn/gmSss5caGuny5yKAoKk164TNRHjLomTPNf5FOps6DT2A8IPaMUD2TvWLQI9IQGTJleZexfPiV0kYHkARHDmg7OM2Bzht9eAmlnoS7zCCcbVNX5JdRUKwBPEHY3q2kOstPxY8JtYfC++AG88j0QhYtsjQptGdTQ0ChOyPQnXpfMae+yLrT9Zi4qGtbxP8NgsvjgEIQOUW+H7+ki7VBqmWSisYycn5wHneukX2hiUgR45QsYx00tc2bOJt+oJDgEYbOMJTiPT1OWKeYgaoFL1u/IzISMEwhCVS0bBSqL8HkybbzJ90r7da6C8uGFNQXX8NDazFDxtXYYVkyVH8/sqomJhoZGcSKr/fJRko+JBh/bOh+4HOStexAbwxd33hCmS+KPiSrpm8fCDnVN80XrSvsIaHLSJzQxGT7IFNtkC2G+Pye8e3T31CG7RcJfQ2V6T0EevFbCiMupABMyCO29II10XvVUfH0mxEY4tSqvdE/lRgT1HN92GkSzFdAUXAMsbSN14McQOf738Pg5CMm9jBFGTORIVUgRsOA+a2KmIZDT7wY1xOrheDhA1lQXQyZzYHKlObX+SaR+dzoqotwMHgr8VwscF0iQoZ74jrVRF1HPSJrJF2NXOIKcaLNOL9A9YdcjY0tp+AYmlE0wvh6udT+FBImyJFc+kpJpMz/NoFQ9KPMHvsCEkjv++Z8Jck9zpUeZ3dA34+SZbwaTgZ4fscWGc8FdsPb+VC/S5giYmJlfUTmTrqkQBPcU0OREQ7YH2Y7EnFNo/+pR01djF4H5izcxvonkkSKNvZNqQ9fvj0Jp3WKQEq48Wx4Md7DJXYWSLWvtuLA8w90ttMw6U5p1NDnpBt0Ddh0CdkA6fm5cUMrcL6IqdIjbkuZCB2+9QjlkSs2QPiJ8oJP6hk9GqD+OqffUXBo8zEBxlMSEBRNs7qMeqlO4gXhjGqkrHkX19JOQXTUUUzPqScjU4KP+TttpbK5vxNqN67Bq7RY08d+3NjSho6MThmHC5p9zvQklZSWYOL4WpWVlmDdvT8zcbSLG1tTANIzMMeVZyK66N8PRKXm4XdN2vJ6cxULKcbChbitefetdrF65EitXbcCGjevh2jaSyRQXOyki4QgqKssxffp07D5jBvbeaw72nDoB48eNzyw4ZLvMRHoMYSGhsZ3AwJ8awvy3pvvORfmS+0HGinhg4lcuHsIYyDxu1qHUSVh3h76cvAKanORBt/Kdi4xN8b1vYNxeE61bnEp2rtHhCp8RJgYs3mCFrUZuzPwGnxut5uWSEFXosldioqLp/U4j989IKhj6Y/fQTCeh6vPrs6JC0ZGS4MIJbD6BxBNpvPTa6/jnvx/Fy6++gXWrV6GrjUu2nHwY0RAM00QoFgWxTHguf3SusqJ5ngc7KepuOHC6OuRkUlVdhd33mo+zjzsI559zNnafPoPvb8htKR26kiKeos0ntbBlIZFK+ZoM6eXbMYSsED+XcDdy5QS4Y56Puo+ey78XJ2sOvy+u48h7EBCy7BXyAT0cUntx86F0wt6BcPm1GJwcClKfTqf7tHZapsW3o3z7OP8Zw2DuU9CKxDlk0QX+vTs643j40afwv3f9Hu8sXY62hjoY4Ris0nKEY/xnSBSQozIsNbg2iz/PZCKBVHs77K64yH2BsRPGY+bsPXHMkUfgkgvOxLTdxsvnrk4cOJoX22Kg+CGWhaJpC7+T9ie+iPCzt8IYb8Kwy/kjiUMVBhzcM2Eec0g5zGQq9IPotUlR/E+TEx+6de8cZFhBy9eMy2J7kp+FXFrpxrkS4tqMqVleDjk0J7kPywztmbekRYZ0M2EHxCR3GzGZGb0pI2zwZb+D47O4i5Z9Povq036NYoPjMW4v5qtZPsG/8Mqb+O0f/oqH//0wnxQ6JEEpGzsBkYoyiLsm/dU4AaEsK2uJgUmQC+rJxQ63ahFJBIgcrKicMGzhwcMn33hjA7paWlDBj3fuhR/FN758NWbOmCInTconzcF0OnVuxWgv/+w1uO+vD3ILgVi7EXR3MvI4GSkRCs5es/HQ3//AJ19TTr7b27gkrkl8l2TKwUlnnIeVa9YjlUjy+2ZIQhS0S9Gi+boQlVwZuPyTH8O3v3odko7LzfTGDjF4BaTk8s9+AY88/hy6OjoCp8P86xfPL53EvX/4PS4483i+UpACZcHPxWP+koEf98kXnsPV13wTa1d+AFEEs2r8ZJiciDFD1ZMSJJbKBpVdEDCm+iXJKCMB31D7uLaDzsYmdMU7URI1MHv+PHzh2s/iwrNPRYTfu3TaRig0GDORxnaDWJzwNhZfxVWTX52L2OQYPNPh40Iw1g5ybBXkpKzUhOl9n3yy85vIDjmjGrpl71hkCMlTn7MOOnZv92HQ8Bin3fOEB6shV5hupkKNHJtyCYa/MCLdXEW618vrjZgoI1DuhjkbDxLcmgrH4iaMBiB+wR0om3dVUXhSMKZ8P8RKdSM3x9zy01/jd7+5C4m4g9LxE+QkzjybExBV68f18xgISAUqh5gEty0woQXmsswz89/zZGi2Mp8ZnMi0t7ahY91yHH/aSXjgvr/wiUYoL45UGgrtfqJ91HHTwMRJkzFh/jHKBu7lnDiznYgkADqam1BTUYI1772oyNN27uY2H4Qt/t2m7rEXOrwIIuXl8hyul5185b2j/nk5Walf+x4+9/Vv4mdfvw47EhdffiX++eBjqJoy05/wfcWQ5Cs5hJhItzeifvVbg7o7jpOGaYaweOkyfPSST2LFsvdQO/tgPldxssPJLDzfR8knHf2Z8jK2XP/vzO+eIkqiPRKTcPOig9aNa2BYYVz76Uvx/76/iCtUguTSXWgqHJ1Q/vBc1ODKn9PwMpL/exhKqsL8PbEaTEItIXLNbgNzDIcRx6wImfXNXQvGfQXv5Zxq1EK36h2DzFjz2jWheQce5f0XyXCN2+S4Bk1TFc8rJqbAGbUXDGRxEZ8V4hi+zWCwTQYrSdDZGUHspmY+7oa6hQkPL8jM+pyUUL6CXbtuHZ+sPouXX3odsZrxqKyplKYVkjctBGNAYWpS90fT81H5dMCP5OYzCBItnKBsXY37/vl3nHP6CXyCc/gEV2j1ZcbvfRfGTJiGMVMXSN85Rbo85DYCxgdLQXY5Q8DmD1Zi5QdvYdrU8eq97Qhxxif++wJOOfl0TJg1X35HzrMhfAFFHTPi31JFAFSiS2o4aFrzARq3bkA0HMb2nk+FCWnTljpMmbw7Jiw4DNRJSR2ELwF8Pw1bXgfxTWouv97KWBgrXn2ioOPnqiTfvvnHWPQ/38CUPQ/iZNSSz0Pm+KSqJQSkVl2Y4ii9TVXdp63cv3NbptTm+EFMfu3NG1ZiXHUZ3nrrDZSXlWauSWPnINvXPW5zoUi3vgH7lgNRUc3fDUcgEr3m9WlWWDQwV/tcbhoy/v2cU3LmnRC25FEdRqxDCLYv1FKZN0f7++axzp1G64H72kvc9W4VmlJ8BW2rmYgFt93r/0j9YSDisj1APDnBWpyIdG3mq+Tr3pajrEOT2WsYhhBSedJ2sc/BR2L67nOxuq4FE/ech8ox1VJOymarpTk/A7l9YJAB/oZPezKTBlcMotysM3HOfjj3go/ggGPO5aTE5IORnM5QwDdCaWkJ9pi3QJoh+j67IAiKEVSNGYvb7/wdAlVue0EpccAf/vRXjJk0zWeBhk9GxD+uvAaSUetc9ZOrAMlkGhs212FHzKPiPt9x529RMm4qnwtsSUqUWsaQJzn6iLe344hD9s/5Vn0jcI7esrUeYybPxA9vvRtT5x/JiZj6vuoCIAPnemQvJ/lH7+v37n+TvJ/quC5XZMonz0KHNQbjJkyR/ikaOxfZpisUEhvRyv0RWbQRnckK4QgGl/drxtWzzNBCChtXuLpqpLYydsaJ5VuhGpWBUQxNTLYf5HL7pf/BBPue0CZjHHmStBul6LSYYTHlnCCTnPktljj+a3grdoRPhA0bUnC+9DjClbOkZGkIH61cb9thBuELsvue+2NdcxqT5h0AQ/hkuEROmMx3C/a3xM7oAjLXCxGJeVOYvMc8rFi+BMeee7n0h3Adu999lY+Jusbzzj8GrY316Gt6kyKa5FkEkeoKPPHUM/4H24eYqGtReP6FF2FZIeGrjaz9y5XmQ5klk3kyKkwk+oNUeCis8Fi89c7b6hmw7d/u//n0ayjlhIxmypG4OT/zmXxnQx0u/8THMFCEmstU8Oim+iZMmjQVtHoiyseOR0q8Twz+YvB2Wj9gkuQKpY1Fx+Lm2+7y1ZJRrfrvMpjUkEuQUGgSYjdsQryrBiSdQNrImvIKXkHy7UNccXM3dJSw35FVUI121M7PmphsO+Qst+QCGO6Pjb8dOj20kbSS8egyGDX4UpIx4i+n1MotL8uqb4/ZXuQkcJwl3SYu5kv+nnqxNH918ckiwSXouAu3k7868l8efzkbGNqtGaj+8rMon3QCN4Z2iFmffw0Lw7kO1btLlqJu/SZEYlHlaMiyphqSN4gHppBCECgAQ5+FqKHI0ZjxE/Dck4/h2i9/k5OmEBzXG/DMAh855yPoaq3n38LNUSRyVmQk50otiveXLJEmoEy72EYo52yGLU3NWL9qpe/Iq/5jQZodfm1yXIZSpgxJTtTeZVXVeOypZ33TyvaczRniyRTWLFvqX4v4rsJUGpjmch0TmWzD5SVhHLJgDthAj58fK55KY+bM2VLxMolwdlbEKzP15HwVwnbsWkP5NHEFraoS73/wATR2JdT0KQ23VgyRr76NRFMYoQQT3vb+NkE/HRhi+cJnDT5kWTNa76RfB/yEKqMQugzz0BEwDDd5C64Oj7F+jrhrsjauKViidTlycJZg/qom46Xq75ohKds+SHtckbENEUkSgdWRltERonSOCD4TBqQEC6N0/BSkwlWIVlfBq5zKCYaNZHQcECnnk0wJPKcSwSDOFUmYE/ZG+Zh95PQiTQhcAJKWdhoYK4ZnHhMRCQLDUtfMlDkKvlai/umtvwffJRhEqFzli8lN2PcDE4kylwhdwOlWjrknWHdVgKtNjjiM42L89Fm4/Re34YjDDsdF556Sl0slF4GhSVzWnN1nYur03fgxAkJiIs/RyM1RsUR0B1/RPfPcCzjj1BOwfZ6RusbnXniVqx+8DTF1b4JrVym7DRXSDv++qz+kj0akNIynn3xaHUmGM28PtVo9y+dffQvJeCcqfKaRryPR7O+8z3V1JnHhpR+XilV/ZFOEhzMuxU+eMhPlE3aX/Vn5tjqKAAXmooHIiB8iLF6SJ3tqBzkc+A6s4kU96e6KPKeUPiCO0dOsp7FLILNfc0IenoDIjesRv3kmSiu7kE1Hb+Q3kP7UQtHIWj27YoL5g3e/nH56wf/DqxiF0MRkaJBacfuispro7omXzLi3h9fuupRxKzOxqUo30M3NLa8tMgymPk1PBOEiRKkhYhJqAJJikItxyXzKQUjvcQYSlftySb8GZjSKqsg0vlAsQ4RmjiAR7ucssvKOr0qSHnk4hq+ELHOGMHWPWS4BYd1NIDmTEh9E0qkkEp2dSHXEuT3fkXklLMvkR7Ck+UpE0yTcDnnLjVAE0YpqrsqU8G0MFGSaYDln5pPeVG5muuxjH8E5LVv5McJ9OjGSzD/AGWecjD/85UHEKir9gS+/inqWDBFEq6rwzwcf5sTkRGxP/Oc/jyLMv3s23TbLKCbBhXZv7gLC7LFl3WZs3NKAyRPGYHvinw8+hJLaCd0UMeRdU/B7x9ZNOOzgg9WfgswZPe+7uI9CETr6+JOBEt6HQlFJpqgs5qbOkYmm63FKFRbX0lCPZEenzJkyfnwNxtXWyvYUiYXlNumkh46uOJpbmtHS2IiuRAo0FEI4GkN5dbXMeRKorKw7CSbYptw4GtsP6imIMSABFqpFyY1r0fT/JqMmmoYsBZIxpeaad/oGocxytrju3nsbLzyz0I0e86x8e1TlN9HEZPCQSdKSP8WJ4XHkMadJzgQepcRQfnB+cGaPcM6BXSb7AuNqiBqX1IqLj18Id/JTiFDCilK4c05H6Z5nIzpmAczSafxiwpJwiJcdOCIKp1X/kkx/5R+stgNRmna7JioCFnMqB3tDvP6dD5YzmwfX6WY/E3eET0aJeBKddVu4UmSjsrYahx12CPbbZwEOOGAfTJ0yGWNqqlEWi6jVrNiL3/x2Lus3NTdj+fsf4q233sbjz7yIxW8s5tzQw5jddlchsszrY4IMoK4pnXTghStx998ewGcv/SgG/loMl15yIX75818jwkkH6deplSFaVokXX3kF2w/qul99czFCJWW+EpVrDuvf0U9O5KESvP3ee5yYHIvticcfewol5WUDb8hVGi+dxnFHHCCvh1HSQzuTLrv8Xi9buhwvPPMCJs49gLceVxF05CieeftQydM627vQsXEFZs/ZE9d/68s47tijsfu0ySiLhvwIpZ4Q5sZEKo6Gxi689c5imfDvoYcfwgcrlnIyzBcVkycjGi2RbSyzHCBZYqQxHODJCC1TVNqhfNy4dikaFs1AzVShJHKTp8unWiqCbQobN03KLaLNYId/xnoLz9p7Y5QV/BvOs8twg5rOhfnw9uhzZjh9hNvqOsSQBTF8az/tkWNk2+HB4SYaESJvd/JV+wRuF599JErnXgIWmwNaWi5rObCMAMAC9VzlMXGVZOxQI8+zxfCPLZDvAt43gcolJsN5rSZ8TPbZ9xiMmz0vJ5eLIyeGOJf72zdvRqw0ivM+ci7OO/tMLNhrLibW1vCVbZBOHn6UiVBd3ByCGagrRjZHBkcbJzjPPPcyvvKlG7Cprg5jpsyQ2VCZL/j3Df5sjAja1n2AlvpVCFlmv6GfTJoDgPEz9oVZXqHyKeQh/6l4/Jk3fPAeNqxbjolja7E9/Drq6uoxcfo8jNtjL+kYrXykHGQjzfprGUT6gpy68CD8+Te/wPYBQ0dchFLvgaqpu2fyzPS9tYGxJQTvvvoMbxGZ3MrIjZMT+VgsTljm7ncgf7YxEMtR4cAkMKH5sTI557IME5tXLcdpZ52DX/xkEaaMH5dzUtEng32YVDhFh/P8pUDGFBQsGPxtt3LFZWNdI2756e247w/3oqx2Cqoqx0iCIjIAH3vUAfjbPb9Gf+YojZ0P5o+oduMyuD+dxxeMJhdOSDY4bEDHJn8zviIlVR7duAFXTvmW+xsMZ5l6O0NrgYVBGqNX3oRJ+FtJl5lOH+51uB63D5vE8J3tWC8tZhAmYCHVqogKP3mWmNISLtJbeTM3ZyNxwE2I/k8DSj+zGOXH/Ap03GGwy6o4P+cdgP/nkC5f+1CTRWZC9MdRCpaXNKz71Y6k1u7Z4mGYcuCXScP5QN9YtxENq1bgmCMPwdPPP46mLStx769+ijNPWIip47nEbpKsm2TAZQJzm8xYZyDI/y9WuOJXGevBiUtF1MLZJx+Dlctew7duuBoblr0JU6YRH2iy4Mfi5iGbv/74938NmI9CfG7wCfPUM05FV0c7Br4R/LlHy/DkM89vF1IisH7TZkXW2GAch7OIhiN49dW3sN3AH8Sateu5GS7ITdPPpvzz1rrNuOKyj8u/A8fdXIi/hKL4ElfDlnOCS/NSzZDMObNEDLI+0sb338K3bvwqHvjj7ZjASaAjY5N6WaGQIL9N7pn9BsdU2nNJo/kvwvSz/1574m+/+wXqtvLZ6YqPo71hLTavXoamNW/i8o9f0vP4GrscRFRhtz2ExsyFce2jSLWJ6Etz0IMsoS5lLSXu5MnWXfdfB+EAOGrma01MBoZQRNyWW3HmzNnY4G5OWII8UMYtvCInhk2k/4FIsk1zxyElWRQI5VxJXVVNON7sotUxULfPySBfWYrQZ1dwMrKI258rpZOVWL8JaVlUIOFEHJb4j8WkLC1W84aMPvH9D4ghFRU5BPt+ddlaK2obwy8UmBN8n33ldCaKnRVgu22ori7nT2wLmtavQt0H73AFtRU//O43uR1/He6/93YcfcDeCBvdo1lI5o6QvPQmhv+imd/F/RR3TNVJMdQOnPGJlOhfu+FruOWH3+cT1RI+FlkDXivl9ufqydPxm3v+DwNDXe/Jxx+FLm5OGsivhfBjl40ZiwcfLiyJWCFY9v5KRGJlvmHPN+Ww4F4O5MzKqQFX/9Z/uBoNLW0ZQj8USHML1CX8+9EnEamoQMbJvA8I6plsbcGZp53om9t620YRwNt+cQfKJ+6lcsBwKd4QfV2+lAoWVNYWWZEbNm3BNVd/FjfecD3S0jeJBlpI5qC5vUqEcwcklPrnE+/J9ynxyZG/tb9dbVUZfvLdG1BfvxYPPPhnvPbWGzjl2MO1A+xwhBgmLGXSDU08CclzfoxUXUKqZixIulgIRFsjnYbXarOz98U7UE1+VLhfaKrdN4KpyWW/NzjtZSe5bTHHMJOmmrC3x4AQOLHylVI7QxuXg8P7XwXseSHCkw8BNcPCcgmbN9CQkFMok5EgSig0ehxKP01lrxcD/fNvvImNG+qw5/Sp2Hef+eozGQlCVMi0JGzb/4Z5fj2cc6/6Ch7lhKCmqjwvzwXrZVASU1HDqg/QsHk5Kqqq+jm6esjr6lswY+pcjJ+5e7fj9U4Zva4ObPzgDZnUbVtx4rkXY/GyD2SYM8s0uPyMub2Up8lDw9p1uO/v9+LskxYiM2sPEoGoJb7xPoccgy2drm+SUWUIeoOIiimPRPDBm09K1UfkIemNTol7On7KbNCK8bIGiiiKqEw5+dspywu/gkQcm1a/Ic13xDByjD3bF0y2W+H3pWQcoaqIOjx6dTk8IcOI+ZgjMjLHf38ESupeBiIhGQ05KHDbHauO0Y125427XYXvYRSYdHSb7h3yvtT9GBHvV6Te7cBJiBueYabMrIfGtrQLhrTpSmcpr95DVzwK59gfoeKrzQid/CuEph0tSYmahgjCcrINkkQZ+aQk16dFQ/qRiAH8yAMOwEfPOV2SEllYTqYj96cLqlYuO+K2CVIiHCf//Kvvweiqg++C1C/EAObywevpVxejd5tgAHX9U8dWYd8D5sNzCiPHLZzIdCbS2+wsKTLVvvHKG7CiJTKMViFHLSGKGIropf5IX0lNLR5+5FHJXrYpORm/zy3t7VixdBnCJuuXlAh0bm3GZZ84U/1BFIHoTkrEHd24pQ4N9fVSzfK4qdYl6LXElPjWrVvr8Lnrr5Z/U79gIsndYDtCRMYFpESeL/MMGPRAMPwgtTWqwslLP/4Mkt4Y3uRTGHS9Mv6gvda0M6U8/N1Hr8IEjIIlqCYmPSF6vrf+x5g3brdIp+eaYwyb+ouzXPvMIHMwsED2hpwYjVagmb/Sp30X0W80wTjiK0iTMpnAigZhiAikX//suc1Rj0N9okd+DPm3jDGSlWQDirejICKZwlYY111/Pdqa6gvaR4T2PvfSi1AKwsCE49yzTkNn01YUAtt28NbS9+Xv7jYkxtu0ZTNaGpqRnw8u6BOqi1SXRHDZxy5EZ3sLJx29Dy8lpSV45tln5e8U3pBCDeRZ+X1+Y/EypG2b2/TFu32n+BemlXhzHS4865zsVr30IXHc1Ws3SuucX4tRmUj7QIIToyMP3V/6k7Dce8u6/dxuyJpbczQq/2ff319j14D4hN1jJswvLkFiS5RPHYPvgwY802tk7NC9zHswChKvaWKSD+lPwn6MY6fUhN6zNzqu4flekNIe7inHPxl4O4gBgO/SFRZpuUuQTLnoaCtF65mLUPk/dQgf9k0+D4Wlzdrkqz6HELCMUhfYZ3J9P/qANuP0ieDWKH4X/LfjbpmyzjFcfunFaG9p4oPSwGeKlpXhldffQCEQJolLLjoPna1b+aQ5MEEuH1uL+x96GLnRJ4ODautPPPM8QmUV2XjVvHbKSXY6jVm7z8Al552GeEuLH8XSOzasWo+m1lZ5jKFdkxrc7/vb/SitmeCb7ft6qkSuC2bMmomZU6eohHB9HFW8v2rdWoRi5fJ4QoHrS/wRX0/4k0yZNMH/HjQTWJN3wB2EnPigHu9oDDMIX8BwLfC5xxHfwsm4OXgCST3ilVd4J678MhZCm3JGDYSnouPcbVyOKvMpr9VxLeqnlGe5UilD9u9Cj8wQ6wDaGuLwDr4Jpd9sRs3eN3GZv9JXwdWUIVxUs7Ec3YlIt7+7+ahqDAx1q3qLxdgRJyOYMG4MYjFOOg0TAz0k4f/x4fL3ZSjoQNsKpWDq5MnYY878Af3oxJFKKsvx6EOPqL+HNJypnf7578dQMqYG6JHLQ9Ug6mxqxgnHHoXpu01SafNzQtTzj8ZguzZWfLAaKlZmCBfl+3g9+dR/UVZR7ecIIX1cPUFrfSM+cZmKYsmYmfroOx3tnRBrFElKglbTp2lKsBM307Z25nSRf/l6IBjOoH7biE44HF0HXATW6fXqb9YvGDNcLljOPIw+jMK8zYsWmpgoiJnD7viV+T0+oN6Nds+mhGzTQ2e+U5/jeUiu89Ax81jEvrUasWMWISVs635as97Xd729owedYoJ4WtFoBHP2mgPXKSxpY1dnAslkEoU+67PPOh2dXJHpz9NU6X0E61evRUdnfGjzJlPeKa+/+ipC0WjOkXNBkOpsxbELD+NmLAvhSISPLn341/BRx4iUYsWqNRj6Kp9gS91WrPlgqcxG5Q5QqLCrZSvOPuME+V0GGvQioahwqMk3zfQCJv2oPazfsEUtVoKyBTu9q+qxoShAlJJae97vkRbRv8LXzRvcItcwuCGo3oi130p/CAzgVFXE0MTEV0o67jS/VRoL/4/bFhKeewPHeQ4AMVckOjw4pVPgfP4vKDvvSYQi0+SKOOLLvsjLkaAxEjF/7wVIJAsoT88HLDvloLOtFYXBwycuvhDx+s0DjGtMVgB2+QT6+NP/7TP7aP+gWL9pExoaGvtc5REuxVRUl2HG9KkIhUI48PDD4SZTvW/P3yofPw5//cffMWTwdcPTz70Io6ScG1YdaTZiffjmUP5ZtLwEU6dOLUgymjJlPBw77vt69U9OysZPwD33/l0qKsHWGUuXhkY3iHBzR+RYuvp52C0uXK6mOwWXFmCy3SPB3LJacsOSK1ANTUxGJKRSkv4dvaeUut/2mlO2QYaQCUfAU8XLZLQC/5mqc5A87GKEr1qDyNSPgPluKaR3bVtjhGLa1ElId3YUtK3N1ZKuRLqgbQWRmbfnHpg4ZbLfqPprRJw0jN8N//zXoxgS+PH/+/zzMK1QznnyG7KdTuOAgw9ByA9JPvXEY9FWv7VPNScUiuDtN9+B4w69BMg/H3gYJbXB9w8i5XreByeVwJHHLERFacmAxxREas7M6ZyYOHwRIfoyRX/3tqyqAvfc+RvUN7WoIn3Q0OgH/nq0tHwvOAd/DbRFvFVAHyD+P3ySoZQabj1lM/cvvxd5VTxHDkYzMREjqNP5E/OHlk0/4bUTl1JmKQYxlMQK3AgkcmPwAa2txYT1hXdRdewfpLprCsNOxqzdyy3Xq6sRCoYpU6fATacGXqmLCdAMI2kXmOPAb1BnnXMW2ju7ZPr5PjaUjtWhSAjPPv3s4O3aPh597HFEa8ZK9UVmvvWPo2JxuLmyYQuOX3h0ZvtjFx4Bu62x78KEfDht3LIFazZtwFAgTCgvcLIUCkfAMoUMcyVIlYKNLxfQsmUDPvXxj/qkYYAhj1/vxIkTUV5VJZ2WZV6cfjqo67gYu9sMHHD4cTDEyleagDQ0eof0zvKrR0dOvgktVgTUM3M+7WtHJpIk+QEYIsGnh3BV++l/uwEV0MRkxECMYE7n7fhaSTm7wWtnjizBNUif1gzEPiEXpCmNutg+KPnaRqTH780HNr8InjBG56Yc0BgFUA+6orxMTqID8gE5YrFBZHmnkhxcfNEFiG9cCzZAzK3BD72Vm2PWb64bUhN85aXXUFZW5UepkG4vis6uFM469XjfL5yrDrtPR6y6ts/jCTJhRcvw35deHEK3Y2hrb0dzYxO3uZsqyZnXGzEjkvCZlOHEY4+WisZAECN8OGTh0MOPQCptgw0w5ovubUTDaOtMYM6C/WW1YKmxBP4mGho5IDm/UG7Uj5z3W6RbHZXSIKgW3p9K5/syET6xsI1Rds606AMYgarJaCQmskpj109DF5bEojd7ndTmSokpVTKK3BIYBYCo8GGTr8o2ppG4+D6Mv/otGJFqhJHOkhJpw/GQU6hGY8TD94KU5rsC/Khl23AwmLAZQQrmz5zGVQNDJt/qr22JdNgkWo5/PfWUHwVTWPYQMcFu2MSVjVWb+V4ODL/aXHAq9ZOhtrYSs/i1iI+Fv0eET+77H7gn0um+zuOisno8HnrwuUF3CUEWnn7+FVBTlIFQChPpJdeIx7XKhGNj4bHcjFMSQ6EQ3/lrX74Wzes+kL8Hr77geQzl1WPRkDRQM24u7rjr9xmlaKgKlcYoAF+wlMz6KNIzD+C/CxOuJSM0FQboFaKfWTYzS5MLX/hCeDZGGEYbMVEp5n+CY6IV7l+9Js+hxLPgD9WM+AJwoSOlKLgXN9C2xUD0m8sQmX0+5yliIA5KGmTsN1A+/gM702mMNDBVz4QNvF0261fhqKiswJy5s2Xa9IEGs/LaWvz7kSfhhwegEIgJ9vW33uGkpoy37b60DYKasdV8TCV+4LDa5vSTT0SiubHXXcSWwgzz2mtvKiVjEBO4+JZPP/8iYlW1nAiJajWsF0Kn8gG11W3GpR/9SEZCL+wsLhYefjCqx1bJY7MChknhj2JFSjBp9jxc99VvYtyEyfjz3x/IybPGeqQ/G6pAqzFCYKh2FT3rPsSboBavmXoOA01CTJhzqNdI2F4zcAeyMfwjAqONmLDXv4rZqMHTdhsEKTFZ95QMGPimuJyQMC4Pe40e6qbORtm362CVzYEp7NGGyjKan/goN3uGlkyGJwIVITdXTS/b5OW08bq9etkjSMw3IEiBA1JPXHTheWip2zrgJCdCeF994RWkbeFHVUjXV0dc/sEqRGJRFUmW41uifhJ0dnbiwH32QeZrQE3EJxx1NLpaG9DXdxJEoW7jRqzdvMVXGAaepgPS8y/h+FpWJhiBWlb08rxEJWbmODj+uGMQHL2QuxsoXD/+4Q/QsH4laEGPxZN1URw3hcrJM2DWTMcnPnktqsdNw6e/ciOeevEVJFOprAcMczUx0YBoAUbZNLCjroPXlMoxHRbSMggnJwQVY72j3/liaB5GEEYTMTEWLYRxwKHG8lQT5xaEmaraY3aaCRZdA6nplFiwm7n5Zv+PYvylS0FMVfU3CMUkOcN20M6oJibDD3mJ8ghStoetDS14e/FSPPrks/jLfffjzrv/D3f//k/4vz/fh4f+8yRefPVNLHt/FeobW2E7yvUz++pxAv/QBUxBsiEOPqeHcM687OOXINVaP/AayyNor2/AZk4ECjuPIlRPPPMiSisrlZmGwffV8AkKNyF1NjbhgnPOlKSB+NEDYpu95sxCWWWZtJ/35qvh8gOanPA8+fR/gysc4HqYvAbhJ7Nx3SZ+yyx12wTx81iPfuu4aex7yKGoralCYQN9cBoiw/ovv+QCVJaV+lW5qTTN5vrWZDaXph7fMVEUimSO/L41u81Ayfjp+Ot9D+DEE0/DuElTceoFH8Uj/PumXF+HGcBMpDHSQaTKHj3+x0iESmUbUsJpgW2CN0WvDpg1id2IEcRzR0UJZfgRODd9OrTOWZ1mpqjfJVexjmScEgwD11YSXvrc8GNvSSN1xJWoOeVOpPiAGBIVSIVFKBRsGExSuQfUhGTXQ02ojKmJpSuVxptvvIOHH3mYE5EnsXpjG7raWuE6tqoSa1mcdJpq8nA9eHZSJg2TdIQ/8/KaMajk5pGpu03C4QfthwP33wf7zdsTUyaPz5BQU9iMvULzIA1+XBH5Q8aPrcXMPWeh0+1fdRDbUqsUq1ZvwrSpUwY+OL9m23Hx9muvoWzcZGEEzYn+zWqCnpPE/vy7q3dEFIshVQbDojjo4IPw9sotsKw+6uZU1+Kxp57DVZd+FAWBCP+Sl2BxQiPMJ+I7EUEK5MnzfXlaN27Cj276ivydZbxhCngSRJUuEIThqacexd5z98O0vQ6C49n+U+XLkB4qWPe+7heW4O0kVlKBaGmp9IN5dfGH+M8ZF6EkSnHkEQfg85/7PBYefTSi3So/B96MetQY+RDkXpQiSR12KSIv3w4q/KFIoRWkJCH3otOtC+843f7kpx+CyNBY9P4Co4GYSFLS9avwA25bajfDENYbvnQ0PDm5qEhDpWcMNC14JkXX1jSc036GysOukw5LIRGlIDJcGjkqiR5Shh08P+xTFKB775238P07/4yH/vp3pB0P0epqxMrLEauplinXXY8px+UcyCfq+ygEpgqBrrSNt5euwKsvv4l0vBMs7WLcxHLsf8B+csKp5se0wmHpYUD6q0otnaNVFeTBgEGlfT//Iyfjtp//FeW1Nf1uHxszBv/490M47phDMOCxOYFbs3Yt2pubERs/qdckrUIpmDRjCiZOGM9/F7kJ1ZASbHbSScfjuddvQ3Uf1yUK+r3+yuv+dxmo16hP//Pwo/xZjfNNLuKeBeHCWXA5FHa8XRJGRRLIoPN3C2Iyf9ZM/PS2b+PL138f0+fujZTj+E+wMNOT7/0sKKpUdUJWBBNm7CGJzxtLt+L0Mz/KSYqFw45ZiOs/exXmzZmDSRPGym8kskaLWjw6C+bIhiz6yZuvdczPEH/n9ygliQJWyQGICOKhbGsKF+yLz3Ni8kOMAIz02VOOHht/Er5uUpn3M9YRcT0zaQiHOcYnAUPpwBkJ3Q3qB/c23vDPOuv5Ptc8j/CEI0BdQUyDBLGGcoQlwdCqh5LhAWV7EFOXwXvvE8+8gIsuvgTNjc0omzgd0fJKmeNjMJVzZPRH1vrjn4L/4wonTKqiYwxu3oh3INXUCIevhKdMnoKkSCTGqDI79Hal/Fh1qz7E8refxZ6zC3eyVw6VDGvXr8PMmftg0h7zpfM26fVuKIfQGF9UrV7yakHH//HPfoUbb74NFePHyqyVNJCYibprnfE4zj7tWNz7ix9DFbfMX+ssXbEKey04HOP2mJWpmp1/TUDjmg+x5oM3MHniRAyUXt/jsvf4KXvCqpnsy925Pj5Z6iGTwKY6sWnV29gWpLl6FjIt/Ohnd+Ab3/gapu65N2xOGNxCXYcGgMFEFhgHTsJF89bNXJVLY4+9dseVV34EV3/y04gKUivCQ0l2wRMY0vQoM5Kgnm/HirtB/nQFSqsHQaP52MabpEOnU/qLO1Oxz/8HaRS5WWekt2363qeEaTf9MydOXc9IymhHQTyMTASEn5SJqPdoT+d+4e2Krk3cdvzJ+yQpkYXWjLDa1QhSy1P/WHq4GB5gPgkg6OyI44CjTsFJp56F2NhpmLDnfigpq+DPm0lTHvGDOgp5yRnJ81/+7/IzTkhEuLkrphmuIoSjUVROmoLaceOR4pNNkJis78ulQ3J+lXvw88/YjX+vaVP4NfRdQ1jSEr7x+pVr0dBUWOr7x596CiWVNcq8wbK+WIE/R6KpGSeecKy/Nc06bMkXwx67T0UZN3f1qUeKL8D70vPPvdQvKQnu3AerV6OxvkGGWuY5K+fcN/FXojOOk086udveg4cgJWmuknz1i5/GV772NU7oXpcFF6nvrExIzs8hwJWp9CmMWBi1M6Zj/Ow90ZYi+OY3bkU1b6uf/szV2LK5DjJvjciHI2P7inrO0egVIlV9EqV7XgYzNN5n1gVCJFwjnokGl54x0zgXI8DXZCTPomLp5u51LN5y14Q8PiAbwSAuwXKSlvQ3pvDt69ps4Kp/oWTG+XCEnT2jaQ/eWVFj58B2XSn1v/7OYm5OGYM1m7di4qy95PMD83boUyPCFOS3s0ClKGisGILzq/I1VerF6Weegq72/tPfi8mNRGN48cWXsnN6HxCJ4Za8twyG8LVh+S0+MG3Z3JR15EEH+Afvfu0eN12Y3DQxoe/z8AMb0XI0NNdjIIijP/z4U4hVjfFVrlwWlL9dS/1mXP6pT+S8M3QIIiIKMd580w34z5NPoXHt+2jbWidTTgRLm6EPpMG1q4yewjQm7mvVpEkYM302/vLIC5g0dTY+/43vcdVNxmFIEw80PRlxoGJxKxZKF/wIrGWwz5dx06XJdjuQ/Nh/o6gnppFKTGRmV+9X4QdYlzGRWjZ/5LaKnMmsngZenYrVSaLFRdVVzyO6+xnwuKwr6y1lHJM0KRl+4DK7E4dlmPjmzbfioP0Pw6S9Dkc4Ui6ld7Jdh/PCnj8rZLsgwdpQHGD9va795OVoGyBsWNizS8fU4rd/eSArt/SBD9asR92GzTCpMuGQDNlSL5e/N32PadhtfK2yaxCS3638KLV999sdqXgfhQz5gUqry/GXh55DIfjXQw+hYswYZFWSXsgcJ6Rja2twxH57qhwy29hPpRYqyAknuycdfSjamzbj3I+ci41L3kC8oy0TdLW9RwPHYZyEVWHy/ANx991/Qqx8HG7/zZ8QooYci/ToM7LgiegJ3qfCsy9ES2VMPV+arwb2B1M6t4cmPfFZzAA0MRmOcD/8UuwUUkLPYu2Wy2ThdzGwsgIkMr8h8D3cZs5CT74Z4clHqAGOy7okQ0p0orThCEdY2cwSfPMHP8X3v/MdTN3nYD7Au77UXoippPvqm0j3ISpVEP7iJhniElmrwvD9lGhvJsDckPGCMNjtc69RvSZPmATLHJh6xaIRvPjSa35EYt9bP/r0c4iKInmeo763v7WrFnbSXHLs0Yf7F0Eznh7MvyilFjFccNbp6Ghq6v3amSjoZ+Kdt95RKeD7CJMUA1U7P9/br70FKiNYcglHjiLF9493duKMs89Qn5DtNz4bIkcRbwdpTlDuue2HWL9lDU4+7mBsWLYcbfWN0uGWsO6eNAPIUv1ALKJEuxMkpHxMDXabvTeu+dx1uPr6b3EVJyRVQY2RA5mSU658wzDnngcv4fs/kkKUVNH2HOLWpdn+s8xbUeQT1EgkJtJraPe5xt+cJo+bcDwjL8Kx3zFCDKQmGLd5e00OOg75IsoO/Zq0Zwfe8cTPSKIx/CAmNZM/p8f++xK+v2gRJszaF6lUGvk5AXp/dmISFdWhRRrzpJ1Gw4b12PLhajStWQu7sx2eHQfSnWB2B6jbiWR7MxrWrUHdqlXYvHI9tq7diNamFnR0dYnpBDIfqZwUg+l64IGlcE/83lFdVY69Dth/QFVI3I6Wui34cP0GZEom5CHIX/IcTJnHQw0TuT6/Al3NDTjxmKOBbu93x6EHHQI3nfQH3e5Q9pBERxxrN2zy3Ux6G1MZNnBzXGdHkis1xL9VPSd9EaPUsXUjzj3rVGSzaG5H8MOFBEHhxHTy2DH462/vxJYt7+P6z30GYepyM88yNG9aJ7VZlanERNYheOhqnSBYIlx50p77467f/h9O/MjlXBU0YNtDr86sMTwhWknJYf8P6TiTPmu+1FsAiHDyJ6U13mGZN4oUI42YyJTzXb8k96HTKTWp6yfJVmnm5XA3wKPi3R9uSxyd809Gxak/VTUMciIxSOY02sl1uEA+XyjTwiY+eZ187HGYOl/Un7D9SZXmVMTtZZXJW4llUDStX4t43Toce8TB+M29t2PJey9j65Zl2LjmLWz84G1sWPkONq58C+s/eBOb1ryHhs0rsX7DYrz97tP4y9/vxNdv+AxOOfZglPB5qJ1PTnXvL0Fne4cktQPWpmHb6rOk0t5fcfklaNrcf8VecRdC5RV45PEnenG4VfdI5Ol45blnURqLScLmkqxXgxQdCTdtJBM4it+r3Ak39xsEMSTj+Wp//PTdVT/q5esJZSBcWor7H3oUva8eFLF79fXXESopV0nVSP7nyvNLRcaNqarFqccfxf/ysC1koDdkFBhZzFBlwh0/tgqLbvw8PljyIjatX4Y7fnELZk0Zh8Y1K9G8fg0ns44kTIaMABuk50BOrR4xP7mcGI+buhuee+o5HH/GhbAsE56r1duRBOGjZpSORfqIT4PGeSumdBAVGxgsYtUsvgrzUcQYaUt/uuoGzJsxnyz26kR2V2pIGYw6UCmuhOzee+VGMfhK2ZR/1kDHYNwXtqrhjvlJpXzHRM+/Y5qWDB/IqZSrWkItmbP3gWh3+WM3QjIPR9Y0EDx3L28/k7ePdq50GG4at9/2bZx99jkIh0NQ0zDLbOdPyX7WEPSQ67uraO3xBFauXoPf/eEvuPv//o6qmpp+Bxexuq5bHYQL74HBQ03eW5raMWXSXNTOnNFv5+5Kp3Hg3N3wxAP3oXtUiyhM+cGaDZg9ewEm7LmPvA+k28V7xEDESWLt8lf8cFbSz3VRXHzt1/HQw4+jpCTW47qkE63jYK/ZM/H0A7/P7NP9GGdf/En89/UlMrW+Ms2Kz7LJ68S/TiKFhYcfir/+/hdgmVDwHT/MCUdhMVDk5r/Z2tiIR558Gn/489/w4jMvymi+6klTYYYi0uQYGMcG7/ckqsuGsHn563j+2Sdx+GEHZZQhreWODMjaSvVr4PxqJkJjTCjOPRABVS4IzPTYVtf4z4QvpE9DkWIkza/S8DxjTuj55FbiUWEQpv4KmankSpT1ZctRkrvL56OWZobKy56STEUabYIwYEK2VWnX2EEQj8Xkz+fRJ5/Big/X8hVG2B/0c70eemZfjfImsnX1+9hvrzloqluBj3yEr0BDfN0t6piINHzyv6yjs5GzfxBrA6hcp7nBqyKfRzmXTfafPwc3fOFaJBqbZNK2/r9E4Pw6tNWvMh8RTKipwPRZUwcoq0AQi0TxyvMvSVNXD8IkopneegdmrFKRs16O5fJV+oSJ49XmBZhLzjzmEHQ1NvRpWjEtC6+/9rIMze0LL7/4MiKhmOzW2e+X80z4r41b1uETl1/k38WdFzVH80iJUjjGjRmDyy+6EE89+HfUbVqJu+/5LRbMn42WTe/zdvcBOlqbZSRGN1pYAHjr42rgbnP2wZnnni+/q812hD6ksStBx86AO2kv/osNl5CCHy5zLK7ihY9mbCex8h2AkURMnNZfWnc5nU5FyBAegMxPeub5C2UDmfDgHuBPkEv5qS0eSq99nsvc83O8+bOTjpfZWmPYgXfcT17+CUzeY77vLBZMSgE5yX/2nLhi/cql+O73FuGZx/8qB3pBSCg3UTA+MXtCqvcFeP8EvZxUrXaDcFEj864hfZXEPiKHCoxIAY2GbZOPCZPXoE5y9ZVXoLWxHn1HAzGZBiQeT2PN+o3diIU6xtvvLpXmHlkXhuYfR3StRHsbTj7xeBR0bXyHU044VikDfdwHcQmdXLlaI/1euh+AYOmyFajf0iAfrXA47qlbCRd3U+RzwGEH7Ius4WknIe8e5uY1USbEUm6quuS80/HYff+Hlq2bsPSd53HVJWcjyVfFzes/hMUc/vwGl5tWqDRdLsUNi25WGaihXfJHCoLKataJi4CNYmxxCvYz4co/lyATJZuvMo9DkU5XI4WY0EWLQCui9FNGWjARlzA/1bz8ijKMMW+ZlQ/+tht3kTruBljjjlC1TYysd31umbbAE0BjeOHF199EXV07f3S2lDwD1SP71PLNOK3NDTjnwnNwwxc/A8flk4JhSlIC5D7rwBDQW1pwkvPq7V0/1wT1I8EGDAYiGGp14eCaA5xz1slItDT221BlxAc3d72/clWPTwRefPlVhEpK/OrI3SKV+CbxxjqccPxR6tL7D1CWhKSivAzjJ03s85oEUQpX1uCJJ55CEGace8J/P/IfxKrHytw0hKIXE43BzUEe9lywPyrLYr0Y13YVqHSCDooniztlcaI3d4+Z+Okt30VD3Vrcc9dtCDmt2LxuJagZUZ4oBVy82G7spGm44/Y7ZcVo8awGm3ZfY3jDmHwq4tVVPUypvYMpR1mahtvqsrI57NsoUoyEOVYuFL46hv7MTfHJyPCLdmY+6rka7AH+MDut3VB1zA/5HMJlM8OQviSk20l6n4o0hgPefP0NhCvGy4Ss+RVbgyeW9RQRzqjxpi34ze23ytwUhmEizySQ9xqKl0KWvirfg+y5+92H+VmIh4DsXgzTdpuESVOnc25t9nlWQRZECOr9D/yrx2ddXV147823ELLCvYfv8lk2WlKOvebMVgPhQN/Nv7gjFh6ORFfv+UyEwlBSUYVn//t8r58/zglLSVW1yhdCevk2/P14WzvOPvVU/52drpn0iYxbsz+mCNe3zJfgF/7Rj1yAD95fjt/99pfYtORFIJ2UpkmSe4BeIMiXzU1qXR0JPPnsi5qUjDSI9AScqLp77MdNwQQomJxw7c0xSLQG+y5aiPzBrUgwIojJm1/EzGhV6PMk5TmDHYuEstLZzFd0Vz4GWaSU5hch03ab4sBv/vA3lI+r9cf7/h9ae0cnPn7ZZaiIxqSNv5uhotvWQ+3Tis60trRArW0L6Gok66UyWLC88wLnnX8OWusb+j1rrLQSjz79vIxmyslAgneWfICuhKOCaEgvrpkuw6y5M1EeCxcYLeBf06nHoXPrlt69vPiBItEInnj6xczqP0A8HsdLL78mCaSKUOm+N5WKV9fWzfj0FRf7qf+Hj8dFf8SW+iHUogbQJ7iCF29vxrgKAx3t3BTHvxOhZADth6J80nTcee/vsN1DozV2LYRTOP/BZl4AtlUoIYOYrvliyHQR/eRsU4QOF90sVuzERKolc/c0/+zVyTzjg6yWzAfdRhfOmd8DKduTDwLKDU137yICf+zJVBprPtwIo8AH11G3BZ+/7GNq9Z3nPxEQg+1kqeczaFtrGx9PzIEdRMm2TabB3sF5r/nUxVwVqu/3m4gQ4K0bN2CjqD2Ts+Wjjz2PiqpamVitlwtFZ2MTzj3zRHUqWkheH/X5MUcfCsP2soW488CkPae9qROrN2zO++Sdxe8h5YTlNirBYe75VLSVEKamzZqOyRPGghShp4XweRKkKxIJ4d3XX0ZYKLcFaHWCNkYjFt5+b4n8W6+jRhbE06+cdSmcaAkGOz6wNr7tzNAnUYQodmJCl1+F+ZFycgBIWkbdBIXGBoJj8IfsuGipnY7Kg/6HDwpx6LCbIgSf8OvqG9HZ3uYnNBtoc4JQpAS7i5DcwMKTh97DyYd6bctXfIhwaZmS8fu9PtKPc/ZgwTB54gSIqGdKaH9nhBktxbPPcfNBjiHg2eefR7S0vNfrFZNnJ1/VH3PUkTKcfjBOuzUV1dht1h6cRLA+roc/m9ISbs55Lu/c9z/0GGI1VRnzrCp8l7ungfbGBlx88Xn+gYpzWBPfmcqcFQz/+teDaPhgOefdA7VF5YDduKUR8WQSGiMLppBMQjGw+acAqfwK2gNB5IIdU9p1CooQxU5M3OmHW39ObeEWuJy0kr3ON7kQpcb5si3eCpRe8ZifxiGa2TGvKJfmKsMeGzdsVFlFC7AriEG/vKpKOmNKJ2eSG2sVPPXtZ61/+dXXEeHEZOD5RXkiUDq0LqnarN9Y+cQs0s4ftvAYWdm4n5OiYuwE/PW+fyAwOHSmuvDuW6/JwnXdO5F0KOXqTyxKsf/e81TgW5ArpkAuJxxgu/utBAnERJ6PWHkES5cuzZxR4P5/P4ayigo/6sSRykruMQy+XxdXfS772EX++0y6K9MiHd4E0RD3t3rcRHlPWJ/tWil84rmkOrvQ3t6ph6uRBkv9cGccCUfyzkG1aRKpCJcXo59JMRMT+u/TMSlcSueFqO8q5i/ghGpi9DtQugg18+5/yMUIx/aQO8kwnoGVU41hiLaOdmWGIwObFIT/QUVthR8lkTuhKjPedoM/mbzx5lsyIVhBMzef5Ns7E9geEGf76EUXoGPrln63M00Lb77+tnQCFlPch0uW82tog232jAwRfzqOg7nzF3ByElV5Owj8iCIUhIVHHY7WlqY+N4/Eonj9tTcyf2/latja1Rv8vsmttaynz4uo3TOFKzF7TJvqv1PkbqD8u4rCiYcecRBSyVT/G0p7pMufXxrJtFZMRirCMz/CiQlXC830IARdPq85ZmTSRGsBigzFTEy8k04M32uvFfknGPEKDMCR4N+6uYvbZo/9PhxJZoKBlUFbaYsNBHGRlIvSAuZGMfm68Jwu/+/cKJggbfz28U8QR6pvbsGGtR+K2ImC5m0x5drOdqp9wonR2SccBS/eIvN79MUcRIRI/eZ6rNu4SZpSHnvxdYTLx/nRNt0OyV+dba04/ZST/Ov1tyGF95lzTzoSqZZmfn96Jw+GVYJ33l2BLt8ssXQJV0+YmzkN83+SzDVRdDS34twzF6ptRPFNIPMqyt7sX/TMGTOQSgxMVImfRVb6qUBj5IHBKh0HZ/f5MLzBPWFWH8UxR7hXoci6QrESE/rTK1BtVaWOM/kS2PA86dXPciNDgT4fhdvqIXzuzTBiU2HmKvgS4gC6amfxgME0Cl0hM+lz0d7W0Ucm1uC9bZ/SDD5B/vEf/0C0sjrHxDSwoiMqIW8PiAm6dmwt9jnoABWy3AfEpZkVVfjnAw/Lv//6j0dQOnZMr1cq3hP5UU447hhkHfHYIIQmhj3nzEa0NJKXuj0XfJHBJ+MU3lv+gTzju0tWIFRWhiBoO6CSATmRZKm+Htd8+orMfc7NN1TME7UI2+7ftKdUPm7HhhkKIRoKQWMkQvUVOuc4rqBl/x54N2F6bcQUzzsURYZiJSbeZVPC99jtoi4AF/GpGiQHWrh5VEVcpGOTUXLA1yAr49De8rnqFGrFhEo+cTHXK2ASUqnTOhpb0BVPdDNV5JpyKLbFrON5LpKcYHz9S99C7YRpMimYmkl7JwiB8kDDYazbsAnbE5d+/GNo3rS2T18FodKMGTsOf3vwEfn3mg9XSTNC3jZMbSfuUSwWw4K99/S7y2DvE0E0GsH8/fdDMpXow7kWKBk3Ho88+oT8+y//vh9lVVUIVh3K+qauRSxGDIOgZtwYri5M7+OMxYv16zcizE1mfTtNq+Rt/CagJGahurISGiMUot1PPxmsHSqjeSG7iEA3aiJUS2b6fiZFg2Kcgekd+8Oqmu2dYaQNNWSSbqs2gl78RRgcGoJTx1fNZ/1AbcYC+X975a7Q2BWoqawCE0rDgM6vKuLBtl28/8H7vktK1iiQ7Q5Df/7CB4Ny88hJp5+LaPUEfi61xpeTSy/EhEhjBPMjZEqwdt0GbDdwMnLaKSfCScRVavleJjhBisQEv+r9D1FXtxWtwiclJzpIkX0mt2Oui1nz5iIWCftdRh2vkFo5/gXJfxcecwSSnR29EyX+Xqy8Ek899V+59btvvAXLNDOKiaos7Mk+T/hPJ5XCnAXz+3QvKsqeLByBuaL32gsvSiLXN+TNkAUsJ3Gzj1AO9cg1UsH7xbgTgDHlBVubpWoo+pgTiu5RjUkoou5QjMTE+8il1q1uk0o2n1npDrhcJgglHaT3mIbQrI8hK0Hn+pXobl2M2H3aFFhcxh54gmRSvSgfNwm/vut3ylmW5PqVBAaAoYBJB0QRzfLZqz+HV199HbGKcr5icWWV44HCasXEX8a3f+yp57G9IBx9d58yCbvPmw1D+OD0OXtzE5IRwpXXXI+ySVPzCF62kgOBzVWOWbtPzVzx4EGk2nHWqScg2dzYO48UAgA3ty1f9j5eX7wC6bThb9f9OUHez5bN63D1py/rfoht0LyYn6AtCIXefn5HBV8Bfx5vLF6K5rbWAc8sKGNnSztOOPY4aIxcuCKrDVcy0xNnqvoNg0Gzi0P2oVejiCybRWmzKK2wL6YplcxAhiuikFTeDOl2B6kDb1Ke/UyEUTrY1mFMY1eDoaQkhgnTpvYTVpm/fVl5Ke6994/oTCRlNMq2ERIFR6a2D+HG//kf3PF/f8e46XOkqVAe2mC+LtKXL4yasC2L4c1XX5SOn563bWOInFr9LMYfu+RsdDS19qmaCJRyM8Bzb69ARaWIWPIzhrBg1SUvEfGWRhx/7OHyM0YJBpvwSSaB45vvM2cWIhF+N0jv90O4r7JoOb7wPzejfOx4nxl5yE0jF/isG5xYnn7ckXBYIVFZ/UOehQ/66bSDB/71EFavXg8QFYjNvJ1DTsT5RUXzU089GeNmzsZAyetEq0ps3YzLLr6oAMVQo1jh+FWo7djEwBe8cPCOMq6C7YsiQrERE3LXRzHOMEklGUyMoqwwzFe0pZWomn+J/J2QIFtJrmKiUXxQZpBjRR2WeFdBewgyUjphCi7nCoEgE57rYPBtQLUb5qligSK760nnXoKbb7sLk/fYE7Y4pmxnrFtIcu/HMkRRPaG68qZ634P/6VHRdygIzJQXnH4OOpqb0N93FBNvqSja5xMiWXguRy0RuyY7urDwqCNyjj04Qi8OJZyCo+EoFux3cL8RSNFYFCuWLUV5RaVfXDEgJ/6R+ECdtm3st//+KOPEdHtkY5ckjJvh5sxfgPMu/Bh232Mf7LvwdDzw6NPIpkkKFBX1e/51DRW57YhiwUEHcvW9TPIMAtbvHTYNkRtmPBZwVUyPYiMXYU+5HRgVh0nxcFB1oDzeYkuNqSgiFBsxYRftbdzuNRKWXUWpktCk3wfFpepWhtRhn+e/WpBFQKQvUFCsXqslxQu16j79lBPR2bC1oD3EKrSsrBL3/+0f+PyXbgQ1LLlSzSQK6+2VA5ZxJCUy3PaB/zyO2vHT8PKrb2D89Nmwbad3ubWXZsakPmDIl/h9zOTd8L0f/ExFnLChhw5nairz65y9x+4oraqUk3l/qlKQ5EwREs/352C+DxfB2PGTMWO3KQUqUz2Rq4+cfPJJaOemiv6uJRqNSp8dFVVkIJv60JDVh9rrt+DKKz4ht98ehSTEt9q8cSXWrmnC2Jn7Y/zcBdhc34TzLrgYY3ebi+/98m68/MY76D2zrApFZ3nByoUoSp4iILwdrVizHpNm7oWNm7pQWjYGlH9v8dW9PkyA4i7Ur/kQ31x0o/ybED2OjVj43gplM0+G0wm/fEqB/ZDLm6WmO2VhETnAFhMxkddaOokcSJhfejPXobDPPikeXgjxqIHSI74EjZEHEWJ6IldMTBGlUVDmVCYnuyl77oU77/4d9j7yBDS2x/2B3e/s3Z2pgcyELKT2lo44fn7nvZg8e3+cf/6liIzbDWXVY+XKF8FRpGJCkOIre1kskA10VcI2YWHVisV47oVXsD0ShRE/Wdc+hx6KZNfgk7d5yr8SSW5eOuKoo2Q9ItajsN9gVQOGE44/BqmWFt//ZgjgiqedSuKMU07Yrh4gwvmWmGEoM7FqT+OmzkS4egxu/t6PcNgR3MQydS9cef3/4PEX30R9awcCskTkiwKZ18Bw+Xlef2cpTj3vY5i7x1wwqwQl1VXdUtH3do9U2xpTU4FrLvuINCVqjGAE9oGa6eiIhmQ5iIKXB2IdH6LR/52BKIoExRRCxJ67zuQGbmMyobzXMtfvrUEq8r4d+9CRRGjfT/E/yqExAsGfcRmX/i+74iL88Z+PoLSydgAFTbUWO+1gzG4zsam+A+MmzMbFl34Ul1x4Ng7YZy+Ul5bADFnSxJFOp9GVSGDZsmV4+Pm38cTjT+C9V14GiZWhfPwkjJk5l5MjV07YNNdsY5WibtUqLJg/Gx9u2ICy0rIB/SCo62HsHnNw/Q3fwBsvPi1JFx3CSjjrzq32veLsY/Cpx/+N2qmzMFizlVAnROG+k084TA6HfB3Pp+BcM05hxxMEQhpP+eb7zp3JzTWmUi+HoMC4ro0DjzoUNdXV/iC97WqBzF4jSBdx+WOyc4Z+RWQra2tRMY4rGZwU/e2BR/DbO+7iphcLs+bMwoyZM7E/NyvN33su9phQi1quUJWVlYJyW4swDwnHAJGjpoObG7fWbcFLb76Ll955H//597/QurkONTNnY+K8A2QkldTJ5NqLIZtTKZ/oiPNuWPYG3nrrFdlGDFrk2W41CkOoFC5vV2DNKFzp5+2o08LWKrIvNxY/hyJAUWl/m74T+uOEKvNiIlcHorqR8B0Jslr2tm5ScpeoiRP+4lpun5siV0Ja8Rx58DwHiVQaNbUTMXb3veH2Y4cNJO9gwhdKiPAhaGtrl+Yg4QcRiYT5GBCRk16ysxNO0gbnDIhWVKK0ukZOOK7jqslDEBLpk6EcaSVB4RNF3eoN+P63voqvXP9pxEon8Oua5U/sfcOQ0z5Qt3I5nn7mPzjq0IOGJNFnrVBMrvw7O+MYM3Y6J1HzcnwkCjwWn4jrPlyBNStex9Spk6TBwpCUJ0dhkuhfJci6raq6PkedeBaWb2yENcj6QOIIrXxy/8EPvoEvXvVJ/56SbdaXBCHYuul9TJl1FDfJqVIVmZDobpcYFGV0HQbHc6XJqUtktE0z2VZEezJDpnROpSKLI/NkfhuHt1GP308rFkOorAKxsjJV44gSP1CQqWGNKSdgRUyC+6y+ofi3ub4Zxyw8DA/97S5OTBxJlrRJeuRDtILOn81BibGCGwsKqewtwFthuYulG/Hl+Td5P0ERoFgUEzEseBNmhU9Gna1Ghbw0r7m/5+zChCTbCXfWwTArduPvdfHNYjnb9KO0aBQVhNNgSTSGP/79Plx49rmYNGs/SST6Ezy9wDQDRU5KuUpSUrqHXDGLriEyaoqGV17GMhO8iljhP/kKmvqTSXCMoB0aRik2r34Hl33iUnztK5+R/iY3fncRfnDLT/mqe6zv49THNamjo3zydPzi9rtw9GEHY9ugzJ1lfAJcsP+BWN/coa57EBBEZmxtFSclU0B8UpI5dp+Lgr6uhmSeye7TpmLxh5v5JB3BYCAi8RyuYH38wvMVydoO0ThBXJYnCu94nv9e8K5A/nf0awVKwiLohxkOc3PeBOWsyt/0PN9t1VDHEFFWwqFZ+TEx6cMj/AQoUz48+SluutsRs8oU4WNavL0d46ojkpQIQmSYOqpwtEA85ZJx80C2rFCzdyFio9ipzcPUSaJmzs4NfR8qisXHxPvg6tC5XheqhRlHpYUQk0Jw+d1TiPtDjagizE3A0XmfUo+DhbptUxwPSaMQUBltc97JJ+DMCy9ES0MD+lpPBNVss1VtWSZtO5/ypDmGcvXD8tL8ZcPgK1KTTyQUSiHxuYkqFul7Fqjmxycow8Lm5Yvxpeu/iLt/+WM+caQ4QbLxpWs/CU+kGLesfr+FS5R/ghWOYv2GoSdbI8il6+rfT3zsI2jesrlAw0sWtpPGfocf5t9L19dKenHCGQA0c01q+6OPPhKdTVtV9tJBQLgJjxs3GTWV5RllaFum5WwQMlBROZ4fP6XML5moPREuTHq8JPmQFmUDQXVoERYuCa+fAI54whHalu7N1G9L8neinIwlUXGZ9CmRfiXiJwuUEiBLmQxpPktyU1CJmcKq5W8gxdsnNajv16IxGiBaY1IsumwUXqJKRPtF+MjWTqegSFA0LXrMbumTjbaEWK8Frog5n3YflqQHAbxQO7wE79IzjlVflOQKRJqUjDQYhiGdAP9+z29QFfXQ0RbnLVxFYfWXwyMf2dVpvt9CQHbzt86dGE0+OW1Y9h7++oc78eNFN8C2ORExQjBoCNFICF/46pfRIIr69bPAFZO2IDcNy9/EdxZ9W51jO+SncPlkd/75Z8OLdw6608c5yTv1+IUIrnBbEYQxH3v0EWApe9A+Ju0d7Tj51BPk75SQQbia9nc96jmWl5fh6BNORUdjvX/fg2Vp7w6o6m2WcwSgu+JB8j5Dz21I3hGRr5IoUkktA1s3bkB1hYO1q97h5qO03541KRlVENx1wqFIDsbXmTMYKxXm4xEqUCQomlYdriVne9RBodllmFzfcuPN3H1By2YAGUeyIIwvCBXWGEmQBf34hLJ+9QpMmVyK5q3rYIQsaepRgVzbV/KWMV/8nK0b18KJi2rCy3DBBafDdlMwrTBE2WuxmBYOtLfcdB12260CCRECywx0n6xMEcHT1IyGNcvx0mtv4OSFh8Cxt0e0BZXXMG5MJeYs2EcmSymUChh8ZZ9qrcdpJxyT8Q7J9WDJvgYH4UkzedIEjJ84CYUnUpe0DW11a/Cpq85BoHFtLzOG+GZJ/mye/NdfMH/Onqjnz8EyPN/XY9vJ4ZAgLHEmw6bFr+KKqy/HyndflyHJoj2b/D+ik6qNKojlUrhsLkKpQe0ko+vGTjSmoUhQFMTksbMwJRZmtVw0l6pv1p7fN6QTWQtgHRSECHvIDmLaJjuSYXB52+GmmfdefhbnnXEcNr73qswFIRSQbKHfbR3Qqcw9kUymsG7JG/jyl7+IzWvf4xNtNWyWAjFMfi4DQZiOZXKizGX91198Ga2rl4KGLU6STOmkII5jWiFsXvU+Dj5kf7Q2r8fBB86FK/0Htt1/wr9aOah96YvXctVmNYjLcib27iAyjFfmWOGmhZl774cZu01GzyrJuUaQwd1PaSDhhznjjBPQ0dSizplngOr+UghzGlNbW4VD9t5f+mlsD+TqHSH+3ET0zItP3Y8//e5u1HOi2brpfWme6alm7BjI88iBjqJx/QYk6+qweNnbuP0H3+LXlpS+KqLtSIdrumOvRWN4QSq/ooifTFpe4PTNt+NGQHhRu2gaS1Fc6LNX48CjDzVfY81MDvby4XgDJJ/iE0+6hT/ArzSDlpTxtYXhK7LKZqwx8qEmdhP/fuxJXPXp61HXUI+xU/eQpEEFwXoF8BM/tkX2FKE8KH+Dlk0bOE12cfRxR+B3v/4pJowbC9tzudnGJ8UZb4qsHxRjql7NsmXvY968eaicfQBKoyVo3LQRSHTgtt/cgis/cik8Ee1jqHwpCkPvpsGVCIVCRIWY3LS114L5WL5qC0KVUxDkw8iD8gaGm04iXf8h/vHwEzjn1GN6GE9Jf+aJAa+LCdcKJBMpTODPJJn2EK4eJ0ma4hus25G5mpTsgL11FV548VUcesh+yC5Stg29GWBExJVhGvKzX9/9B/wvf618bznS/B6WjZuEklhU+oJsM7/NQClRQglJxONoXr8KM2btgas/cwmu/9znM06zwnFZxSDpxdVohGxudjuSN9ciWmYXSE5ER+GqX7nh/vo/TuU196ETwxxF0bKf/yK9+ojZ5q/4QlSF0UliIsKF+7l8Pro1xfZEzaeXqY4cOMrqvjyqIBxiqV/A7qnnXsaXvvxVLH77bVilY1DKJxjLMhRBkYJart2fyMbGfGKSsNOI12+G29mOPfdagM9+9ip8+vKLEbL4CttVkSGGXz+G5HktyINlfnoymofi/VVrcP5Fl2Ldyg/w6U9fgx98/5tcVTGQch2EhZIS8Oft1l6VQsK4GUdMuH/718N48+0lvc7KghhYXKmpqSjHRy86DxPG1soU+9Qwt0P95SxcMdFC3bFf3/4bLH3/A3QJnxP/egOI2lbCHDdl4jhcd82VqCov58qBzb+HtcO7s6jcGyTta+uI4+nnX8Qf/3o/nuJkt7W5DaHSclSMqeX3y1KBgH6LKei6iE/veBvtaGtDV+MGlFSX4Lyzz8eXPn81NyfNVtcg27Bv8JL/BEqRXmCNNshe4cbRdUsNJ8ei3luhbYA3nArY3/6nU7noIRRWu2MXoiim6fQ9kaVmG5vDR1UiSYaQMqXpvZ+wy4SL9oO+gMrjblVuJdtzRNUoHsierNQCaqicNxs3bsBDTz6Pvz/4AN5fshoN9Z1IOwk1dXt+3ghONggnHbFYGLVjx2CffffGaaceh1OPOhITJ09Uh2bKPBikwiIZR8juxATIbXiqUJtyxhXhnqIiseeK3BemOoaMOMMOsxoE5Kgg+On3ZairyrixfSFXGkHK+YHhyQWJyjujCODO8BPLdXFWd8DhJq4P16zFM8++hCeffRaLly7D1g2b0dGZlIsgGjJlCLFoQzKvPFEEhN94uMkk3ITKwhsri2He3nth4dFH4qwzjsWB++wDSxRf9CPG1IK4+7PSxGS0Qg1naXT9dBxKjLbCzTkCNcB7j7q77/0nrMYwx7Cfpn9zAaqvOMtqYk1iAEqpWAnij2Wsr0GJIdnEB/8vvIJQ9cFq24xzve7UoxmCTJBunbmdr4QbWprg8NV6gr+EihIOhWCFIhhbU4loJOzvi5xVa++kozB4yFVRsjVVevpUDBcE7uISvdk+djT8sO6s2WlXJkpk/iPMtyUlbQd1W7eirq4RmzZvwcbNmxDnBCTF1TaheoR4mwqFwhhTU4M5s2Zh0vhaTKgdg3BYpTGQ5hrBYWhvNqre/Gn0GDYaIUyIbbdNQqVXPzhiUgVsesKdMvmP2IhhjmGfYM2owiRpcM+UNQ8yIPbn+Ma4vboaGHOgKixsMikHa2h0JyViMigvK5Ep6APfirxJwVNZO+UA4CkxY9snxF7CkHu8P0zRS7qgnQLSPSfNzjx5d5BscBKUICsy9kY4oZ3G1bRpUlFbUMBxmP+vJ9UomYlYcw2NQkDp4DNe8O03TgCfGIc/MRn23WD/ysgBrFXYmdOSZFCp/Hr9qCWQk0s8MkM5iMlvqBIeKbVkW7MeaIwkyBV4MMf1NtfRLBMhBstZoGyLutFb1AnFcFVLBHr92jv5UgPzV+E5aXYw/EtQIxHN/6C3iOrur8zWtOf97QHay0tjVEIS2CGYMJnIfW4URZK1Ya+YjK2xTyBOTiRNhpD07g7v8M2Mdr71AUdn3iMZuVyrJhq9IE+wIAVsqKHRG0ivvxa0vYZGgRDeXqbJ58EkBuliJXMq2SgCDHvaPW6yuxBu4R3YFNvyBxaatDAjlCroVYaGhoaGRjFDuTK4RjX6Wpz3iSLiwcN6pn5mEecZyYpqNqgkQhRxkcyqdk7Ocxi+ErmGhoaGhkZhUGTEIBYGjUHymF2JYU1MrBUYa5hOGL2k7+4Twnu/3IJRMsZPVKkJiYaGhobGSIDK4MzcRgwapHiYybAmJiVjUSJitonKv1vAHkzZ3JwSsbfmJBoaGhoaIwjKS99FavDzGxOVppxh71cqMKyJyfow9pH+uUzIVoWwPU5hbBuhskkwaVHcfw0NDQ0NjcHB8QZPTChDaWdo2IcKCwxrYnJoZWgWi3PZivrZOAuACCdOTZ4pfyeZSsIaGhoaGhojACJzszOEeY1bE0ob000oAgxrYhKNsGNIJt9VgfaxNH9uU46GKhafW6JdQ0NDQ0Oj+MG6J4IsEBUWwigCDGtiEp7q1ooS5MqLtTAfE9fhhGbcISpYm/mJ2BjR/ERDQ0NDYwTAhkfiGDwzMdkPN6MZRYBhTUzS9RgzqEhhWSeW3/6wpTLHsZ1R4EtDQ0NDQ2PnwGMu3PQgV9qiskbCdufMmpBGEWB4e4imqKXSgRdqT/NUYE64Kl9kIdm8rzpQR0NDY1fDkyOSC+pacv2kyjTxQctpgt26CU7HWnjtr8GqWwrXVhWVZVXl3LoJYnvKwEo9pEoPg1E1HaUV80Fi0/irxt8G8jyqloIe/UYEUl2oiHdxu0yhugJvNaYDt9RMbZm4JYkiwLAlJosuQKhkDK1ymwZnf3GpAY9Gsh2Y5Cejz6uSqqGhobELIKrjiErX6fQ6uCv+gNC6l9DWsQRmw2aUJB3QsCqHItdlYpTub1XFzddh+0m4fHATrzQz4YyfidAeR8Ge8xmUVe2rUlhoXlL0kAWohXuDcKIs+JnyDdMUpkHtRYuKIxpk2BKTK4QPcUgU3KS+j0mBBEXYfqip3EpYfn/W/bJ4ISyqEQyyNISGxi6Emje42uGafo1GNQLZ9W/AXftnJJbcjVhLKwz+GYkCZSH+s5K3cT6JMMOTGScoJx3UL27d2xDo8fedGBBKi+1MvjBjKBFMJb4C3pv89cKd6Bo7BdYZ/0So5gBuBvD4EKmXZsUK0YSceCssBhRe5lwoa1G0r3XrUSQYtsRkA39Nhl9FVOWUKQierOxJ5eZeL1XENTkpMjClcUWCZynZpn6KGsMfspVyOw0zRP2uzWhb/GNYyx4Eq1+DklJOtDkRQWXWN9/0pV3X8qTCYQUWnMB3vw8+YaXVWAcu1xvBGs6S6zOUxMRMtgHJXxyI5GeeQWT8QmgUN7zkB4OcuQmccByObXahSDC8qbOYgzwMysfHk2XqKV9ZkzwSoqeyYgTjaz+KdHw1Ov/7EcTf/XmGpDKPqZ/Q0BiGcBz5I21vRft/L0DqZ5NR8fKtKEmtQWkllcQh11UkaMvMH/NoILgTRVwGAgkICcsGICrCw7iKwuexyUDX69+DRvHDXvkkEB3MHgSmTRCOkg9QJBj+6VEHM/MIxcriZhxT6Z6KdalInVznV01SigTSFJdC+rfzUU674Np/Q+LVH4CdfRdiY8/kg7+rRnEjMMJraOxicIUvxRdGYdNEx6tfgv3sT1ElqmOM8bMxyR+eTyR8lp2jCBMWbMfkNsJUI372RU5yy5/kbpf7PvXJTlXb+9AofsQ2vgNTTmSsMNYqGleEYmUdW4ciwfA3NgadtvAaftLxNaO0dNtPr7CLCNxkQ9KdiCS7QEpDoFUmzGg9zHvPQuIv+yDZsZSTEos/80HY+jQ0dhTk4ENBtr6L5t9PRfi5n6Gimo9GIfWZl2OCVGYZ8Tf1i41mY26UUkwyTbrXuYf5qgrrSU6C+Yp1k4wTCTtzLo3ihMcfeKe9apDDnbAiuAg73iYUCYY5MXFVWJ2WOUYlPOaAhGvgzDweTnta9C2Y3J5u1lqIti8G+98FSD54CFhiPWQBApbi/dXTFEVjl0CoHOmGh8F+uQ+qu9YjVG4p4kBFtCCRagixS0AcTl5kXVKh9nnSL0RU3aAupyb8xRsyPE+8oCJ9bTmvIMiCTQN/K5KNApaueN1ISh6kqx7R42iRgzldMJo6lCnQK/RhcoUuEkVnp/dvFAmGvSmH+f8V+gjUosTvqf4UJfqu63+u/dGLByLKwOEjcuS8x9H64D6IfLgYEb4C9fiAzrhUHh3Pm+/G19Bxx1TQg76B6OHfRPYJ6/hIjZ0Lwttex3+uQc0E/w03DeqnsxKkhdkMcRqXBMGIxNBllCBEKoDyGoQjJtIoBw1FwawwPDPMSYvBzZVJPpTxtt6+Dsl4Cq67AenGTahymAi0AKKB0xUy6nKvJh2RIoVqyl7sIHYTwqlOpCpEiPhgxjgn9eNNWAcMJpRk12F4ExOxkujmxNovRM4Sxxb/SNsszdlTE5Lig8OXkoZw3nNdVJ71Lhrf+zK8R3+CWLkgJmI56UgnsDJuw0+/8wO0Lr4LVfMvAfb7GlhsHGwkZSFHEUAZgobGjoVokWULbkHrO1+BQUtAa+aA1c7ji9s07NhcRCoqEY5NhFEyDsyoRKUR4+qHmeEU1gDHV/6OXElJb4bb8BaSqx+A9crdsKpNeIYLyu00uYkl83KXiMSTkQmaqhcr+FDH+Gxtr3lRTto2n+AY6UchywNBos3dct99mfX5sMewJSZTq6TXKiG52dEKgsj+6vKVNhDKtb1Co9hgypAEU+Z5YI6LMfP/H7qitUjc9zVExxGlpPn8P8RXjtVeI7y3bkX8pZ+DHnYTIod+DYSvSgkLEkFoaOwoMNi8nRkLPoJK/uqO/iqnkUzaR5ZzNOZngxXir2IYxPdBoaFJwKSJiE46A2zBIrT+aYaIOoZLss08Y9bJjfyJVkCjSOEncOpa8x9UxoTZz5SLroLAlTJCzfdlhdsiwbAdrb/9Ju/nKbHkZYNyfjUc4fjqIrDo5DnPaiWz+OBXJCAGkVJ4bOYN8C58FO1bmbTTM+FFyJQToRh9aSkQG8t/Ll6Ezp+Vo+PNG+QIrR4987uybgwa2xvcPENEJGBK1Q6V//nZv2XoL+vnRXo5mv8zbyALfvOkkij3Lp+C2PF/QLJNERmZjK03p1lHJG+bCo3ihEtS4hEiZq8DMQuWShT45g11bDWKCMOWmNzJiUmiE11ukGCtQMkjlOYyS8rO8yvRzrNFDrlaoLJDetxMV7L7SQh//gN0JrmslhDOrqZfJokoZ0H+4mZ6lJfbiLz8IzT/ZgzSS74Dt7VONXi7wOQQGhqDgMn/o1wbEaqF0jci6oNMBI5M++hvTbq9enuvrxeFSmrv/zbtKNihsMwSG6B78/Y4RzImngaNYoUhzRupjRt4Q+NjIR1EDmxuA0y0Fo/jq8Cw1retEtZCMqvdAmEI2T+tXR9HGvwxmYp0llwZsUr2QMnn6tAQmw/WbsulJcvkglCRC+KXsBFGjdsK69GbYN8xER2PXQ7bXpVJIZErnmto7FiI4VZMKP2NTN3l3f5XVTLhKxmDqFORyQybq5gEWWVT4rST9oVGccLhtMRrWQujae3gR6oS4v35IfcZFNGUOKyJCSujtpDrC7+bFAZfLSfcOimiZr6cVu5HFoiIfxD6SAhjLl+MxD6fBLY6cLhKInyLZOZMxx+gRSSCwYXvam7nHwuUrrwH+MVMtN93POzOt+XhBKHR+R00hg98VaVgVa8DHk0gyBLrdRvVhYKTpGFY0bGFF2rXGFYQPkqJJX9C1BQL9cFVDGMdbN2itXJKLJpRblgTE3sNNhKTDkp2J6Iq54bXEBN/aEIyguGb+FyGkoW/RddZd6G9hRt1vJwVpvhdJoxQ9neZCyJKYdUaqNj6FNrv2A8tD+6DdP1jyDiG9WgvugFp7ByolkbgOqKuSbt0ZmUFEIm048H2fO+pnIicjBsC/6ikdjY3hVbwwbFoyqVodMfGV0FleGGQy3xg8CGQtaXIEhQZhjUxiafJO2ywvgD8wXkrnvGdX31PMPnTG5zDkEZRgEgTjoPovE+h/NMb0I5xcOJ8VcFtObaMv1TpMTMpHDz+GSczjJv/a8otVG5+F9afT0bi12PR/uzn4CY3ga89IVMEeDLPYvHE2GkUDfw8ahmpTrrKbnoW7Q/ujtRt45H81UTYf96Xb9PEX/0nDSTtXOJPdQXpZPOHOT4Q2pxzu5OPVcdwBlVkRWNYQK2wI+tfhh3x/2aF5VejpR5Zss79NorMs2FYE5MPk+mHUMVXBFbhUwPhE5KXXiEnk6DLa+/XEQzhaChyQfDHbEUmofyqzYjveRxYHYPFOYkrVE+a60ziy2gyCZUNKqqwikieUAfKlvwS5MeTQZ84F6xhiXBo4YN8mTQPamhsT4hsr6LoMHMTSL7zPbT8YRJw7zEo37QGsfIEwjEXVtO7iP9yLhfu80OJu8NpXQ4iVtLE67n2En9z0dCad5kq06ErcxchCNo+/AfceAMfkwx/se0WMKPxLcqAl1ZCFO8rqlX5sCYmr6/HWpLi0vtgJgbR2xubYHgpmYlRobv3u8ZIA8nJ11B+ypOIn7kIrWlujU0Tn5zkbp3j8hr8ymcKEuMtZhy3575/P7w/zEfy7inoWnwrEvZauYlIEe6ii2swrjbVawwMsarlJsJOYSb0sm2NOTaclufgPHUJOn9ZjfAzN6I6WQdrIm9fUbGRAZOkuWzPUNpZz5WUJ/tNM9m59TmYIeVbkjf7+EOegwpYVXOVaqxZdnHBH2i8Vf9EqFxUMGBSJc4UguwHUoVrZA03/AsdKDIMa2LS4qGVmQlvMBYYxieYSGeCqyYt/js6sdZogByD/dBykeiqbO+bUPqZrWit2BMGX2gwi/QfEBEk8hPmnxIgwpW6CNuI8PNfROrW6Wj+8xx0ffgbPnPYImOFtgpqDAip1TILYVHFjw9DXnwp7FduROddVSC/ORp0+Z9QVsIXUCLvGVf1VFE+Q1UWFsUAmVCLeZML9Z+32FrzmCywLZskyY3G4ScVibD3OI2/b+W0fd14iwWylIHIXr38aZCIP84xpoo8DgDRfhzLeBFFiGE9a59RgoRrRVNJixbcl4SvYydNIt3+ATRGH8TKMmRTPh47SNFaVF68DJ0LPo74FqZCiqlviu+tXwdWv0y6CVHTxELZOBNVqRWIPHglkj+bDPuxs2G3Lc3uJi1DXpDyChqjB6qpMPn8A2Q8QmRb6kJ6w+9R/7d5aL59LxivfQ+lVhpkDGfJEV9F8TenkvK6KnuraKfCc7F2IkrGHtLrmV3mIh1vRunmDYLPSPNQLkQitlQCMGedkPeuRvGA8TErvuE5lLduhcdyiqyINjKQbFvB8M477t0owoc+rGvlHHAnX/we6nVSx4j65TgL2q9UqJWJODRGI4SzCZHJriyi4oBLT7gXXftfg47fn4Eyux5ejSEnD+p5+U1KKqR8MvCYH/QjRnqbq98qR4pRSVBCOoEPH0R88YNIj5sBMvk8RA/8JEjpJM57yvh2LJt1WGPEQz5m3mba+ETBlXY5XxAnBbv+ddhvfBfta55FbdJGSQnfskrla2XMzgaOGcgGf2aq78VkdkkXXFn5xBuwPUs06W5tSoSYcRqz9SnhCqX8R4Ae7dnjbdeadKokTkRndyo6SOVg8R0golijp5LQU+Y/xf5kBfGwQ5Q0dnnPowhXS8PezrGhK/k8JQ4ruEPxzmpFgdS7/5F/6vXraAMJ/vd/F7+lEas6CGXXbUXnUdegtdGFYftZ2EjOfiy7S35rY5mfUh3hynpsDCfA9mrElvwY7E5u5rl9PLY+cz7im1/tw1u+u5qiW2YxofuTywt84aNohdMOe9Vf0f7XA5D+eRnsPxyF8JYnMD7mwOBmQbEEZF6Oown8HK4s5y9BSvgbibpOeLtfg8g1zTDJeJi9uMd5ImcTfzO1+LcwS9ErBM8xpp4IQ+Qv0V5RxYuVr3DlVjlAF+op6XkUHSmy9Jx70IoixLCnz69eidMPPJD8m8QL4VAysYUMCU2VjUX4yk1Aj2Q0esUw2uApazufEzxOGrha0rQMiftOAE1sRqScqytypuFsw7DVaO72JA2sh0xOfO948ZcpQ5bFqrWrQ1RxrYI97TjQfT6GyKTj+blLVDE2Lw0RPsFoCsKZhWj/p6KAePSiSZi+Y5HtjyEmV9/cD56Bs+SnoGvehmXxT8qQMQdKtyXK6YMIUSeeSquTk2dE/gwixwz+j+Mh3VwG4+L/wJp8GJ9cOIGWzMX0i/qRnGtSRqTOu7iph9Wr6LTgmHwIdIRbCn/bu/INhKr2F1Xf/D11IEAxIbXpBRg/PxLGJCJHMZpdI/XzCPmHJR6eW2NcdvTN7r0oQgxrU47AfwmWH1TCf4kHxv8CwL9VR3scFiNQJYrFm0FnDCp5aowWZCyznJRQbpcnNXNR/plN6Hj6MyCv3AFZmjWcxuAKYwUhFuIfR7YxUZY8Ws0nrkQbStb9Haklf0e8ogR04kyEZ34exu7c1h8az68mrPWSIoJK+y6iaRL81QZ7+d0IrfwDkhs+RLjLQWQCn0CmcF3O5mYTzjI8xqTToiGYiHBm5e0j8GsSBJXmlE6QfkwiW06LC2/yQSi/7Dl4ZpiPUo5fV8FfKYtj5Qxb4hy0ow6ksQGozVqBJK+21HHjE8agomY/uVZT85gmI8UCYU4WqS/w9i9hjBdF/EzenoKMwMj+7OWR8hnPo7WELnnC/QeyXnNFhWFPTA5MYxOcEi68d1kDd6zsZBHqjKNz02som3yIb1/VGO0Qq0xHmPq4acfmxv2yY/8X3uE3IvX0VcDyRxAuFQZ/wYI7MFBfVuXo8w4uIVbAIX4Yj/esSJi/nDiw+V2+sr4CKb5NoqySqyjzQfa8AqHJXLWJTpT7uf5LHNLh/0UEnRLxn5pD71BkxnZP+RPJhCBB6Dn/2+38EGzrI0gv+we8Ne9y/tqFiAiy4ZO/WUbhlPMnxdIIJfwEjlw5y/qM+GGdUD5KQXORFhtOYJjB9+lkaGFliF76K5SOuZQrM5zQSGLTTentNoBRbj/qWHYPYjElzeQe20hTft0ezNN/rsR/4vZ+EI1hDIJ052YkXvorzMm8BTlMLrKRlwKj9zGKUI+2rzJeueY+pxNFiqJoqe2/tl4tTboHkUKSAxHfJz4JtMz6KKrP+aNcsSjZPNhfd1ANASbnI8rbVXrNv5B88hqUdm4ErSBqosqM9iisls4AvoUkEOyEtZHzlQSn2m7VZISmXww280iEa44EDZWrwwQuAZqY7HBIh0L/d5bYCmfDE3A3Pgn2wWMId9bJ52oIPw5/GSfbgp/zLDM9DPDs5SY5ww/hf6RbuMl5zmkoOf0BTm5MmSiHGIU/8Pa/TkBZRxNvK6rsQuYc/BAtzjhUf7ouh0Brpbh4oJ5V1wvfQeSZm4CKkCS8SvNnUoVTLgpO77vHKNZ+6F00/cfuX1GkKIoZ+l9X47IzFhi/w6DKPLho9aaj4ourcpwhBTQp0chC1CIhwhE2LNYjHuzXvgn7hZsREzkDIsQnE5Rvt30TU4mxRUr63ILEOIm2+YvGTMSrxsKedhoqJp0EY/IBIGFuI/AnlKDlBilXPP8/4a0iHRUGV9trxEJxBBn/wkcBmi8L+wRCTeMO3NRmOFteQHLVU7A2Pg7aXI8wTauaJGF/ohf3lnnYFkWc+OWsGbcJeYKQVExA6JR/wpx0CB/WXEQ9Y+BIi5zvYMffgnvH/ohUA0HNBKHSieKV6RRflx1/C0pnf1VTkWKEbKMOOn80FqXRhPSNI6L9Sb7iZRPW9IVxfMs73TB5NicBepFh2JtyBGrieF7E/A+GmHhc6qQda+C2rYJZORMaGr1B5owIq0mDtxiED/oB6ILPof2Vm1D2+l2cLPC2FDO4fdfdrj2c+HZ/2QP5atwSK3K+KqpIbgZ77y64r9yFJG/zifKxfJsqlE88RBKWSO1+IGUT+LAUkypgQl41Nx+I6rLQdVACCAOKo9aX8hYzbm7xWjYh3fwS6NqH4G56i4/9nfBatyBmMIRD/obluSY64vuBbOOzl/lz+FPqcrmJhZt+zvkDYjPOVZ/xCScGRXw8g2Y84foSYKQTLD+e/fadiIlrlrYbVTfF49+DuvwzN4ay2VfLmk8xaBQbxCNNvHMnIokWsAhfdoiYcinPeb4jUbBI6qXALSFs62r23Phn+5JTigNFQUyqwpySiFTzyr29IMmD8gcW5eN08v0/ovTgm6Ch0T+yzcoJV6Py6DvhHvAttD5zOaLLnoQhsnP648OOvARhSWaiQrbwYzAZqr16kLYGeI3vI/XevSLxLDrDJaDj5sKqPRjhSQfC5mSFluwOEup9Ouse0dE38oJgMZzQ23foa/K2nThIagPY1jdB619E07qXuYluJbA1LkNrTUORD4/f5yTnfV6KKApDevcbChRXNphnT0hmB5JmSLRzE/PCqxE96Cf8o4gIwIEpE1L4moaRVcVYP99NZXPyQN/5q1R0pMmRj41UOMPy7+G2MoTO/jXfppTTVLF1UQzxGj4C01vbWz/EhCrhxcyUSuI7Uuf7CwkJJVcm5dtWeWTpYuNmFDmKxq7ReY+1PNpo70mNAvVq8YRtD/HySSj5zMaCbMAaGgKqqaggY9Fkuloe5vbEb8Pc8DpClRTpEibTQlvujuQpWec2f9pENraCKT8VPu+4Kd9HQmTZKqtGfPJ8uFWHoWLcHLgVu4GWTodljleFDtF7F3Az+RE8ZEOYA0eKnQVFPVgmEFZdieF/5vquf1bO9mmnGW7HakRbtqK18UXYzW+hsmE5vIYt8uaIed/kk7fIxi5cONTXCRxRmco3Q+Cngvfvd/AjR7Zgg3zIDj+XZVtgXTbauKnOmnQUjI/cjYi5u5+Aj7ctkXI+92nkmJgGGqbs9Y+C/uUUGDX+fjS4SBNNdHfUXL4CjnCiJeoZ6mGvOCCbIX9kTsdSmLfsBWOs3wMIybJVmVgvcJMP/E0UeC9xyTiLkYtlXfXsAFKEKBo6vWq1/Yf5483vIR24zA+QMEisRKwwQps2wa5fDnPsHN1BNQqCaidqQPe4RBGuPA30E6chXfc6Gp+7AuF176GsDNJfQA0O2AFgOb+xvPflX4aMfpYTr5qsRUKMRoRWPcMl/WdAkiJ8lb8VtuAaY/hKqhokqiJOaHQ/ONVzQSt3g1U+kys0ZVxtCcGNTuCTmVhlq3Ft5/YXFY8k7jv1OkVlOimQOq0rkUpsAmleCbvrLUTbmsGSfHKPt8JNbkHSTctI7wpu9rKjojYIpLoVyiSKJtlgvZzbKKfsYLDPeK+i57YFPtvMLMBJgtXFsNmxEdvnYsQO+DFCpRMVe2RdfLuInGh6ZGEleT/6RXrZLSiJKRKXjXAnnEBzU+DVT0miKRy6GXSAcDGBSoc3iqb7v4SxIikfC8KtAvKRI+F1IyUSkbCx8c3QD2V0WRGTEoGiISbrVuKBvffG97BBVLhiA/Y35R/EpEKaWv20JCbqgVnQ0CgIQkU1HN5qZNpOhMcdiPCFi5FoXYqWJy9B7IN3ERYEJZo1/+6iy8xOUKbJJyU+C8aYqEUoPHv5uLYFbid/takhznDfhiUmbv6y+ccJ08/vFa1GOERgh2oRLikHKx2DdLQKRkiEtk7g5iJuKnDngEZKZZE5wzK5GhHllCgiJ0IBagmvBlMOmh6LgzlNsru6XNoR2SgdbyW8dBfC8UYYiTZ0tTWi0mtCVzzFTRF1iCfSKOEX6qRSsPg9DfPvFaVqnREVdejCStUWX8TiXzCaiZjiCosgBa7n5/QgeUF4jOSbqTLJyLAdRnB+Lle4etgMdgNDap9TUXMcJyThuf7xPUlYiGwo23ZG5nLStvJF+Xzl3+Jr8mMnWz14Z/0BZmwSf9Pm71uZ76dRHBAKbaL1XZSsfowvJHJCAvNA0TNXgdyMkWqP/DfdIcw4Ra2WCBRLu5U3OnWHuSmUohP4iEcGVEwCeB5aIjNRefUHfPJIiOUiNDQGhWyyCz4mpKSPgHgj0fAk7Ce+zE0878r0J+HI4GX/7Yp+hqPeXCfk+7njX+6CTJiKXN+S7Vs45CJNrPy9rMjg+eGpgRVEKs3MFzSDzyiC0i7qfOJlZn+XIdu+H18mp5gBP/zIVCTC8y/Q8DOosp5EMFBAGPMPLFQD4uXII+qYwbqGsOzkPlSI7yQIn8uHFnuP02Gc+iOESubIRKvSbGOSnBvey4QyCIjDJNb+Bd79H0Vpuf/IiAzgQL25B8Z+8gP/O6mVt/oQGsUAn2w03jUbNalVfD3hqyXy5ZeOZkHId085z2PMS1jW26WfSx2AEYBiUUzkE1i5if523nhyoxQ+WOGkMNzI5eANTyM85VjdTzUGj9woDaFAgKsEfFUaqT0e0Yvfgd32Abrevg3OG3cgzGcJo5oIPqwSZe1MosIG/xHLFxLkP7JrGSSjIMuqtZ6a4JnP6xVZUAwhqNgcHEr6h/CDUM+f/ANJh/qeLJ46h/IP9c0RxMu48wUkSJqdmJdDDFnuZfbZl7Nzv79jTpbeXF+d4AhEJjRDYSB+ZLbNVYp2rpBw2YYe922Edj8PJSXT5P1MigR5hs0nl2g3FpjL/AYJn9OkXv4OKkTae1ck3wvze5xAS3Isxn7uPXWvM9J/1l9GD3rDG4pg8va09l8o38zJZTlVTD3PvNijoyJo0MkQ9SKlBn3vleT5KKzu8LBHMTVZ8thF0cknnkfWsy1cMnHtwq5drJQ6PLTNPgUV5z8CDY1tRzDas7xVqWe3o3XFzxF59qeg7a0I1W7TAnn4YYC1QA53yHXtKPCwwUCcMxiTzFHVPMt8k0xfPrms+1G7fbCtk7T4TlwZIe1AfLcZ8I78Psp2O4uLE9HsVECR/z3ynImDFe/gL0IQOK91OdxfzUNorPAf4UqSy9DBx7bI9ev5NUzi77jC9ujvEeRd0clthj28NOeZIdg/3w0RtiGrduUhZ8zp9tNjFqPV5rvksvi+GLCXFgeKKv/OSX9JbIi3uIs9O1n4sCfSenOZnSz5D5zEluJ/YhrDADnOCznjB7XKUTX/RkQ+14D05fego2Imks28pXYip16TH/lXjISFDfwx87/bYPqZ2rZbArM81YP5ykyOCtDbq+fV9HHMgi7I34dI/yHhj5toMtE1fSG8Tz2NkktXoXTaRYqUgPXCNwKbVO5Bh/7QRe6Srte+A6taKUCEOuhscmB+9l1YxiQZgeNyUuJb2vyXlkqKAYyTElL3BEING/ppIqT3n6KzVaTJlk3xnwSHwwhA0bXcxu/gm9XV+C7sbuF2/UFs1uXB2fcEmCc/tu0rJw2NPpGfcaOreQWw7j6QN+4BbV6NcAk3ZcSU0kI8TZOHI0Q+K6nfdIkMqwT2xAOBAy5FePrHYEUq1Taux8WJ7pEvuc8zIEV9TCiDhG03IX37JMQiNtKmB7eFInzpczDGHgbmqgzFWXMa81uhjHGCxvCGSEzQedtMlHurocpEo+CVCxfNmDHOayaXsDEYIWqJQLG1Wvrvp/H/SCX1BhUIJx5ViYH2l55EOrFRBVNpaOwQZFsm8zxEq2Yjtu+NiF65CvYVLyI540x0NlrwmlgmHQHR/GSXI2NySwOpJqAd1Wif/zmQ6zag9NJXUTrnmgwpEVMJ9XOi5I9CgblGIPDgzSUo2+D4yttSoj3NzTkeOsxahK/mq+uxh/OJKc3VEyaFYV+Pky8DxTe4jz6ojp9++fOItq/mhDg8uMGAMGaUgTQso9fkHXAEoCh1g4576KpYM51GCSu87wnv/yYX8eO/g5KjbuSdVssmGjsSnt/CZEiIn1hLzR7MiyO54q+gi3+F9Jq3ZBViS6QX9xM9wlA5KjR2IMRzMPwRoJWTEQdIloVhTT8TxgHfQLh6HicrfmoB5j9JopQIodUGZpLMAJTnoNuLf8u2kJLg59pn0JJYjeo5H1Whx6ppyWN7OWcheT41eowbnmAyws21N6HrlikoF1leXSenmfQ/tckEfZ7judVsq3kZJmKEOL0GKMZWS164ylx4+MF4Gu2DHLzDDIkGC5Gv1YFYlZqXaOwiZM09TmotkuueAVY9C7ryUZB0vSylIEhKr2ruiBFrdwH8iVpWtujkZCRNYYyZBLbgkyBTDuRmkYXcPFOS3bTb7l7+gfJJSYAdNKa4ovIwpX6wjcO/Bp/EWESdnuTTnww/2sHXpLEN8BtYwx2zUNv5oQoJFomFMo1qoDU38VBm0I5lqcPLf4qXMcJGhWJsspIZsj/SVm8rKaNkMIolf/hdKbgHnAx24n+43KlzI2rsOnjcbuDJ6remCpNlHuyGZ5Fe9jsYH/wHZlsTaIjACKlQWyaSdKVlkRVZsI0wzVB6BfUdjMXvvr8sbK4qJBkcYiA5bhZK518JOu0cGCXTMrEynqg3I/L8G4FSgtygoB5zfZ5AsoMFWJXmQtQgMKUviUheQvxsD163S+geLa0xfKAi51WLa9/4OCK/OQlGbUgwT1kotFDFRKQRdMvJO6Er7P0wwtQSgaJttku+bl4/dwr7CUlhcDBMdDSlEPk6t9GGJsMkuu9qDC8EUSqp1nfgLb0b5vo3EG98FbG0n15ELOpNjLChaPtATtAiq62rfnpJvg6tLoM35VS4845D6cSL+eK0pNteqjCa8Mzoa2J3ke++mrtNoFjsLJ+OvkhS9/exE69Jo0BwhsmbJEKcWKZuqkK0nCBR0gkzbcHkDTbrYtLvk/NQSegbb7PTDrzNHZE5MIp1TjYW8Ud80320i22UuRULDNYnUsplSRsdM09H+Xn/VpXQqK7AqTF8YCMBysIy7XtmKeRsRfuWV2GufQakYTE8/jLbGxERK2nhblAClRZfLp/VNCVW1pmBrsjFFfk9GNc4qZst3CtTxaokdqSLkwdO3DpDFkomzgEZsydSNQciNuk8oHpy1l8kk8HNz44qMbAfSC4H7G4u2dnEpPs1dQ9Kzn3UmpgMM/jyXOtfj0DF6pfgVXIlzzW4UicUEy/bBPtxn7RNygh1V1jXeHMxAtUSgaIWC9Z+H5/arZLeRdKFfg2fmPBHGW+xYX3yP7Amn6w7r8awAevDvNhdlfeEc23banib3kB680Mga59G2mlCrC3NTT++NcJCfp2vIiQnuUEK6s5wc4xwGuyETCaWrCyBV7MvrJmnIVq7EKiZwdcZNflEgaFHbpWsEyukSbdHCflCzSDaXKJRMFRjSb7+K+DBa2WiPCKdWD1le6S5jb33Wckh3Jg31jTueS1adfmtre0YobppMXcpesf+MK78phXHOq6aMI8MPPL6xEQ0BttDW8VsVHzqPfRaFElDYxjD49IIJTSPyDheJ5ym12HXvw3UvY3w5udAGrfC82w5BYukoIKwiPouufmZgtxvu4q3BGkbSJBjzecJImrB4SqIzcdoh5tgTTIB3vg9YMw6AnbVPJRMOAzUmijdUKUQ4vr1PaUAyrJfymcpvaoeGho7BYodu8nV6Pr27ghProLptkrRjrh+46Qsy8R7IyZ86mIhRtqb6I8rb3S+ihHsCl/0fbP9ZvKv0lLzdD4okYELkxCfgKiHbjekYH/6ccQmnwDlJaeHKo3iQHahnjMBk2zS82ArxtJwknGktz7NzR3vgmx6H05LC/+Mv5fcglB6C2hnCg63aJYJMmAhk6xLBgoY2bIdrJvNQKaID/4mPT/rDlEjRxTj83yGQNOqUGAXP0/IouiMVSISnQqvpApGyXhYxhhOROaC7nYMSHgy/zssWVWgbwQ92fPfoa6nLprkO4716biafyM1NHYYXN95ufW23VDlbOFKpimdoAgNKQYuEi6K+YsGFTJ7EhPevJmxm1dPLmDjoei3gxGKYu+Sxm2nwPzcJ8NxtlGUQXIHsMoQ367sj0Z8iVbfHkHt/7TwX4mq/a6hMSKQTeylarsRVXMPOWZsSVya4aUScFNJkOZ6dLB3URLnJqL2OEhyK8JddUgmuXko3QY76cByk3wflxMKB7bn+CaSFDyb6xYm4eTBBPMMGCbvZ2aYE50oSMiAEypHNGQiEdkDZlkV7FgpjLK5iMX24b9HEY6UgpnlEAUSc5eBvdW9c/309URqJcRXjXJXmqTb9vkDXXcfke7H19DYfmAZWTL+16MRW89VzDDvF0GaT8HVeX+RrVaybZ9rMNqtTfJPqzy64l26cM7PnOcwQpWSACOiO67/auTGybsnv0PixsDfiJAcpzX+S9xD+96Xo+L030oGa/MVmaVHKY2iR47Xq6fyXwh/k0BpkC9fXnGQLfXSTfjI89VQmzOZLE6QExYs2Iha8WUUSbH6E/lCpM3IzBCNbl4ceWJFbn4ylygyIZaE1M25uJzY3CxfIfnfN0j+0k0xyUUPtUSrJho7AKJZuejg/5aBvPYj0IdvAKmNcIGEE2nRZ4iKBmO8f6pcoUEvAXKLgwq4ruuRcdHFxqUJUajPQBBKNkIxEvw+6d2vJW8mY8IpPl66vUTz54MFw60qt07K+M/X70ZqnchRY8LS+eo1RgSCPkCV7drn7EGqctk7/N5voveatwT5AwT135XRQtSCQaPqRbj6QUv4K8Z/F+9FQElY5tnIDbE1ejl+j9/9ELtQcD6j24fBNfj/9fy+PljPT3qMCqTbTw2N7QhVA7oUyYaXkbyfk5KKMr4KMH1fKj+0TJo9s3NSppXmtEnPJa4xjdB77kscBdUtRjQpERgxXXLt54zTph5sPsQaYtym066GN1bI8yPCsw5t7RRl397K/47xQVWbdDQ0NDQ0hgBJipU26djNiH9nPMprKVQuUKYcq+SqOFBHaJ8HshFyrUrPSDZ6x0W/4jyNrMY3ojFSiIn0gXN/V9HoNXhVZriLqlKbhURSEbmd4zG018xD9WU6SkdDQ0NDY2jwfOFeKHrxH05CKW2AG/W1EEFIRHkBkKz5sy/wTe0Qg2db/458MXUmRmjOkt4wUlJ4SHq6+P3U+eZUEUNpqBpbpJCvp0iIaVgoXbEELa/fpEiJN+LVMg0NDQ2N7QQlY7igLpXmzvp79keJWQ9YZdyaWu7nKRH+Wf0ZOLNwGFxrnIEfPpg6F6OIlAiMJFlAPrjW260nymwcRxglxBtkNJXBGe4WB+6nfovyGZ/UTnEaGhoaGgVBOIOLkHiDGtjylyMxftULYBUmiOuqiDjfACOXy9J803fOXiGWkApYqze6B+3+LbyOUWLCCTCSkp5Kp//Hf2+fSSdQ4jDiDppVuAyx8Xyfv38WrtPRe3VXDQ0NDQ2NbhDEQ5CS9j9fhLErXgAps8BcN5M7LUNFWJ5Hd2/wYMFKM/Z1n5QEITujBiOJmAi4F76MxJYW53wr5IinP/iHyWW4Ut6SOm/dh7cOB7b0U0lDQ0NDQ0OjO1z+H2M2X8iaaHv0EpQs/ivomBKpilBZ+iCgIX7mwowU7+W8ctQS4Sc71lsavsL7IZStZ9SV6xxpxETAmHiV+49EifceY96giQkTmSWjIZTZa9Dy6z1hcluhw0bibdLQ0NDQ2FbIcF9iofUfl6LkhT/BmFDJzTfCjUBUtDLz8+awIAjft8zIRD3Zacr14JIaSv5+H1uAURIa3BtG4owrUzIll3lHkvFcQbNF8fNCvyaDR0WRvyRojKGyaRU6fncEDM6ERVIcNrrUNA0NDQ2NXqA8QhwwUYeKzw9dj1yJ8nf/AGMcV0rcOAI+QTIlI7rn2MlNCKg+85jnGLUwlqyx5154XzcZZZRhpEoBrPoWtCWX0qPJRMv03LBb2DMmMD0HpihKIEqsVxqI1L2I5Es3gBgEzqgT1DQ0NDQ0uoOIwggiwzHlSsk/z0X45d+Aji0B8TgpobZKVSEKbWZUkiBxWpC/JCAsKipHZKygNYa5tRVXzL8Ry/3TjFpiMpLdO2Xa3tSt+KEVJTegyxBV/gbxfYlMu01IKTo7O0D3/gRiZ96jEscSUa3VgoaGhobGaIKqzCQmAlF2oeP356Nk1T9Ax1Tx2abTJyX+NFOoC4A4ZMwgrV3Ol6uu936CEV6grxCM9LgT+YC935hL3A421xzs95UkhPJ2FgJriqPrwCtQesZv4HLrkEEG9KzW0NDQ0BhBSLA0RDU1i7ho/93RqNjwEryqKFdGPL/cie2rIAWKHbKUlcvopNAH5IL0nhgFdXAKwUjPvS4Try2o8P4+7wDjK24Lc6hwlO5ZOqx3SNmNcuWNKyQxC2z5G2iPUpTsdoyfHJboVCcaGhoaowBizBcLUsNtQcute6CyfQXitRYon2UMj2Q3KviAkoF4xjhmk4vc8dCkJINREW5y7v+hvu49cpAxgZgMpiMzwsrXQLxMpasHpdIuGJpUidgTN2Hzwx+RpMTjysmo1ts0NDQ0RgG6RFCwqHq95SU0/L9JqE5vASIWSro8WE4aHnGy1bYLARNeKlHXGOOl77sf5RilYcF9YbQs9mVW2PgvzW/ETPf7LEE9QqgiZYXU0yF+iJeMVTfAmh207nkQqj/6qq6ro6GhoTGS4Y/xXW/+HN7916G0VkRuMhCHKn8S/sMlfhBwQYIJ4wyEuLTGM+57m8Uu/JlMlDWqo3C6YzTNqNLfxL439JbRQvfh7UI0IlI4MRH1cwhsi5t10tym2NyFlllnoObj/0JahKMTEbGu851oaGhoFDtspIS3CGJeWKZtbf3zSShd+gRoDR/lWYR/EldKOlPcRLzkLDEAtZDRnow6dHzSTKYj06OXJ9cFH0Ejg9G21JfKCftdbJ3bZk8xCBP2mIH3It2qQAqHJUTA4p3oKJuGsqveBAlV8XaqPU40NDQ0ihoyGStD2uRj+abnkLr7DJSiXfoZCubhSQ+AIHNrFoUQE49xnWUc3+h1t5bcijb/bU1KumG0LfFlPZ1v39u1u1FDbOZE3CG1CcrVFtoFUhZBpbkOjd+uhdPEzTpSVRGnUL4nurVpaGhoFAvE2O0iJRaYnJSk37we3u1HI1LRAbfc9M3+gcVlcO4gHjHhpQyXTnbMfz3lVmtS0j9G6/Ke1v8KsVoWaUu7Ngt51Bia3xGT5h3hlp2qZ3DO/n+IHPQlmWVYRrsbROsnGhoaGkUA22Ww+JjNUp3ovP9MWKueQYQvPkVxVxBnwCDO/sCY55LamIE2dxq5Nrk+eBsavWK0zpvye7+2qGL6gdMTq9xG2zFk3vmh3w5munCaga4p+6D0ogdgRKfyN10/8kebeDQ0NDSGC/w0ab5zCP9LZHElNhpfuhmRx3+E0pIEYIktQr4DACcmomC9ykDhH6QAgwMf+h3CPGOM6XS9kd6t9OfYikyhHI2+MJpnS9ncPlyEmbvvFl6Zbk85Ic8wh8yIIVxRKFjSRoMbQvkVnG2PO4xbdkR0sscPG4KGhoaGxq6HiIth3JrCWBkoX5Om6l9B+g9nIdxaj1CNmBh9b1bPUqklxCJTpBjJdSIZiJjwz11YrjE25d33oFt64X3Sn1adXqNfjOYwEkF96cxF+HDlJjY3VEm45gFH1TEYPBT75vuGDIzlHMT7+eFoevJafgZuW9SkRENDQ2OXg/n/Ejn1VXErjYvEn8+D94tDUUYaEa6NyBo4ckvpzdot8CHDKQbgFiJNiekyY3JX6t/Pja3kpMQpbEcNAW1f8JWTNV/HntNmhpZ7nbZLXGpsS2oSxncWxNpJOLCtcbAuvgvmxDMQOE65MPhJGbQHioaGhsZOAKcFHl96pvi4G2GiOEkSHS/9AvjvIk5IEiAW5eKIn3DTd3KVq/Y8VYQhn1f0Pn5zw5BDKDXjMfrv0ivTZ0LNMd131ugHemZUkOSkaxF2i06OrGHtDiNUZFIrkB33eVRTJmVLN3lomboXqj/yIKySGcr1xNR+JxoaGho7Ay4fy6lYCvIhN7Hu37D/9imUxutBS0VWb26uMRRvcIN8JCIF2hCGfT62O6QSZmcnubXsOueLyGZ01aRkENAzYxaS1db9HrFxZqgVW2wKwxAhN34StsG2K3G4CG+WnSpzoE2QbOLN/eTrETrqu7y1RmQKFZkt0BMFE1z++0gvXaShoaGxoyFcOQw/8xnkEC7QufEPsP/1dZRt3ghzLFdIOBkhaTEJ+gVZRY4S4ili4lEMkpmwJGEsUg3a3EzOr7nO/Qd/z/IvRmOQ0MQkH8pV5HMIsYOsLV6zW2mISpHMG8J9Yj1r8VCKdFcK8VQtSg6+AuSoL4BGx3Oy7vA+RH27p4aGhobGUCHcWhlfDBoiGMG10fHhfWCv3gJ31WJUV4otIqoMmiHya3LDulghSgHbVavEwUTdBKcUw/dYpF9435175CKshi7It03QxKQnAm8nz/s9XUk6YzNZOukSxgYvZxCad1jHtJGiBsIpLiu2u2jhumH0wFMQOv5emJExfudQJh5P+qAwTVY0NDQ0BoTgAESRCZHnkqWQWPIX4IHPwnQSCEf4aBoTGSE4h2BKIWG+cyvxXD+NVU7UjTTuDzz2eiIa2IKJMmPVsjXpuXst0pE32wOamPQNyXjTd1TcYVntV3ltlkdJDoVmg4/eyXiVcDYvHWQplw47GOIOgXXkl2EddT0Mc5zK2+bXBtT1ATU0NDR6gxIkPBlMoGC3bUDinVuQeOm3GJNOwqj0C+35PMHjAyqVHIaPvdzEQ1murx9RqgkzUEDUDfOY4dFSz2gpcW6uvhjfgHZy3W7Q017/kOTE+Z51qTHJ+L3XYctCCVS0dDa0sOJ8cIIiCy+EkfY6kejiRsn5p8A84EsITTgExCzpZ0/98DQ0NEYncse/ZMcKsM1vwP7vr2CtfwXhUv5ZVNhsEpAZILYzTWCCEVncUlRK4x+8z06ZfbPzPPwisdDYLtBz28CQDkyLLkDo60eVvEVMex7t4vSEuHS73D3C/MBh9ZMlXHR2AqFYFPFDP46K/T4LWrFA+XAxTyYG4oxFG3g0NDRGDVwk+ZgXBvHL+HpOB5IfPo2ud29GePlrfJBmCFfzgZqL2mLAZiQkKoXIqMjtOcsxz3NIGTE7YT5YdlX6bP9tafiBxnaDJiaFIeN3wv6CP6AtcgnrtGUYzfa5gZJ2qJ/CjEM55zENeO1JcPMokuNmwzzqWkRmXPz/2zvX2DqOKo6fmdm799pO7DwckzSR0iSKlbSEQpoitVIhReVDQQS+8BmEEB/gS4mKVFQqjBAgQKWgUIlGSP2EBK0EIuJdpEgIKhEpbQm0SWPSpknkR+PYlR/3tbtzOjM7u77Xj6Sxrx3H/v8kv/bO7t2xPWf/c86ZMyQ7NjXdFAAArGYy70hSGabq5dMU/+cZSt58kbquRaS2mFdKboECcbrG0ddG82clujVlRM2M0GgeKTZKGhrVn9r29eTPhATXJQPPtpvDueumflo80t6pfx9NJmw9HoVYtvT3aPNPbB6KsMFQuyAoZidQ4qqJie76CKm7P0uVDTuouON+Ctbvz/+IdmhG5ic7YxDWhdkYO4WPBQBwC0mTL+rmw5pR6S2SPWrDLYVMU+St47Ehqky9QjTST/L150me/zeFtlCIidIUlSJhw+C28EhQ908y4fNJRH4doXmxTzmOmTlYLyQl8lcXh6Iv7+oz7ht4SZYUCJObx6nkvj6S395TeJkm+B6ussupolbjN5hyGbDayA5pxIpNczHeyUqU3ojo2k1q32eovv0eUjsPUb1jD62T7c2XscWCSC77H5t5dnBXIJsXgLXNjAS5KDZhmsprxG9doXr1IolyP0Xn/ko8eIEKAVMoFQUldkt5WWWeZW/P3CocH67hzLEtnF6xqIXml7BTHYnoVMrY3AunR6MHDz1Bg4SCacsCnhILxwmU6nPyqIl8PqVH2URgZm2s0FISM0DtIFR2VY+t2RYqCqsJsdHviRmbkfGuJIWQ9I49VCxtpcod91Fbx10Ubj9AevOdJIMNqZvTiwOMLABAK5lp/JhtPqgkjgZMaHrUzLMiqo+cpcrIa1S69hLVJmPquHzOhGnGqCA4jY3bMiM2798KjbqxdcWSK6kqrJGztUlszad8NY396h0X7D3DrlBaekguxMiZGWBiTK3amCSVSXW0/avRMcKKm2UFwmRxuNDOG33U3buLTpIufDC5prVSSxM3cSNCZLVNxIyZh069KvZY4sdOnJ5UmzQelrBI1NNDIo7MLCQ0A7/LOWPs4iIZKFJBQwX+7MJudbSfINjCQ7YBl2h6+29uLkjUdLM2FDVbp7HWWAMNwGqF0zw5NiGUpFwx86hRqhovb1gbNZ7emAIz/K34KBRdDn9KKNIlv+ztDE3XNnM/ekmgObV70qgO6z1Os0psND0tMcXUELZZWATHWSe5xRiocvwvepE+IV4wsSfkkiw7eEIsnjwx9p0ngwe37BMn9Lu8gepS27rGbrDN+2te4KJfMdc6+3T2wDpxIRQppZk1yFRsiFShuGFtZxV2iDWu32eeHS0VYu65QePOm9NvO8990uzuISoLwOrFmibljUJqcPyYF+R3qzHxEbtnjS10ljgFYo/bhH+VzqqmU0Uo0yl2ZxBNsREkyoZwtPTzpsjYOONlsbkmRpywaZMWpvSekkzU3AjzZjFzEnSTKr/Dr7T3lz4tjpdt2CYgby0JLCsQJq0jd/VxH/2Y9tJjydXADCEpxfX+r3kZntSCvTdE5gXe/AsNbWju4dd4PD2ZZmSpzfOe7+N6AIDVRdMTpTHcInKxYb8X89k9kdCsx5Kb9jXOchrcIotBuDmcppJQolO/+/JJ9fC9v4xOE8I2txwIk9bjwjtnHqeNBw4Gv6Wr4mNsZD5XrPskc2E0wHAhAADWEtfzFM/12gI9y/Nen9K9hrtYVCo8LEcLXyo9WfsTtUzxgMUCYbI05OGdZ79ChSM7wm/1dMsnREUqoaJmByNDmAMAwFJj3CMsRFHwxoTq1egfU2+pb27+YfwSNdhrAisCCJOlx/kyXVbGMfl92lR4nMcTSj0oNncrSyxd0gU9AACwRnGFC4T4gKLKpeTXwYR+OvwenfIvoh7JCgRPwuXDCZTnP09t9/cG39hxUPbRsBQUVbPsWEFaEZIwAABgEbiFQUqzCZ3LzUTJpJgQHP986kL8k86naITgIVnxQJgsL3kM89l7qfCFz3U8JLrKPwvX8T6umYNVqaUI5PvKLGWsXgMAgAZS10iHEtQZcDJQOXH1cvHRrU9X3xaiKVEFM78VDoTJrSUN8/yA7hwdl1/btJsfo1JAyQgbsa+sC2X+vw+SZgEAaxZ2S4TtN1okJLts7W22y5VfPXdGPjp2ceupB164YrcXhhi5DYEwufXkA+dkH5XGLxV3Hrmv9gvqDg/TFJOeFCRiZldXTTSEeSBMAABrECtJRJuxh7ZeyjrWPJWc++fb4Xd7avU/7vsRTVDzcw2C5DYEwmTl4dTHycNUog+Xth7YyUc3h/ohvZ73y5pWXFVpDaJcmAhX8XAhC+xauQgPAAAWT0OpV2udhI/PSGGX9xofsohkWfz/1UH9zLox/ZezNRo8cpzK/mQk6K0S8Fxa2eQDjfso+K+k/Zs7xXd6ZNgblJK763ZzqwlN9YKmUs0M5iAmu5mmK4zod/u2F0h8PbRs3wh3zLVJ9x8WbkMsne4xQQ1VF9Ma+L4UvvAFX33JaDF9LfLF29jv8Cl8/svNtJl+P9vGfqN8G26q55bfkzvvBm3cF5mWx5953+gb+oa+LWnfZhZdzWxLVjxasb/X9M7MaSVzO1VKkg4KSubsdZNE5aA2pdT5+hCdqA5UfzcV0P/2HqMagVUNhMntRS5Unvvihg2Ht0880rFRPtxeCA4W22u9gaB2aiO3V46eSMUJRebDvKCNh8XtMZjtd+Wq2ot063C2+SyJ+TGeYXB8xUZnYtKcXOHK2zcaU9/G7YSsvM3y18n/uzgthc/CbcDlKtByNKONN3Auo166awm7AZhgb/Aa3o9F3sZt7iX0PPeUtdGmTTJ3G/QNfUPfWt8369ZND6d7cjklkgoc9un9QcF8CjktSVmROlKlqqzxwHhb5W+XztDfz1eLr+9Oam8eOu6sGFhDQJjcnuQCJaOvj+TH36BNp6Yo/OTu9Tt7e6q9Yywf2LSHP1oYj6ked2zv6E66jWGJqVYskKyTt0qppXAWLlMt3qLkPhfyb9fYJruNrN2N2ojm2/ZGOTVeIp/hNbfxGwfmPRZztLFfdW4E52yT3RM3/vrQN/QNfVvSvtnNRIsFTsbqo/W4oDnQw2FRVqtTycTYEJ2NQ/WbKwNysn+oPLRtPU2e2kuTxo4heQ5AmKwl+h+h4pUKJVc/VLpDXbOWo+IcLDMZdZ9nvlKZ56ptK7jNfO3QN/QNfWt9m+Z2uo0Kdw1tGz70h8EyAQDAdYAYBQAAAAAAAAAAAAAAAAAAAAAAAAAAAAAAAAAAAAAAAAAAAAAAAAAAAAAAAAAAAAAAAAAAAAAAAAAAAAAAAAAsN+8BOtw6ZbGOX2gAAAAASUVORK5CYII=;" vertex="1" parent="1">
          <mxGeometry x="185.99" y="463" width="154.01" height="86.53" as="geometry" />
        </mxCell>
        <mxCell id="05j3ZdpUOvvFzqO4TqoD-1" value="Trigger" style="edgeStyle=orthogonalEdgeStyle;rounded=0;orthogonalLoop=1;jettySize=auto;html=1;fontColor=#FF4489;fontFamily=Comic Sans MS;flowAnimation=1;" edge="1" parent="1" source="05j3ZdpUOvvFzqO4TqoD-2" target="05j3ZdpUOvvFzqO4TqoD-4">
          <mxGeometry relative="1" as="geometry" />
        </mxCell>
        <mxCell id="05j3ZdpUOvvFzqO4TqoD-2" value="S3" style="outlineConnect=0;dashed=0;verticalLabelPosition=bottom;verticalAlign=top;align=center;html=1;shape=mxgraph.aws3.s3;fillColor=#E05243;gradientColor=none;fontColor=#FF4489;fontFamily=Comic Sans MS;" vertex="1" parent="1">
          <mxGeometry x="365" y="990" width="76.5" height="93" as="geometry" />
        </mxCell>
        <mxCell id="05j3ZdpUOvvFzqO4TqoD-3" value="" style="edgeStyle=orthogonalEdgeStyle;rounded=0;orthogonalLoop=1;jettySize=auto;html=1;flowAnimation=1;" edge="1" parent="1" source="05j3ZdpUOvvFzqO4TqoD-4" target="05j3ZdpUOvvFzqO4TqoD-9">
          <mxGeometry relative="1" as="geometry" />
        </mxCell>
        <mxCell id="05j3ZdpUOvvFzqO4TqoD-4" value="Lambda&lt;div&gt;Node Js&lt;/div&gt;&lt;div&gt;Net CORE&lt;/div&gt;&lt;div&gt;Phyton&lt;/div&gt;" style="outlineConnect=0;dashed=0;verticalLabelPosition=bottom;verticalAlign=top;align=center;html=1;shape=mxgraph.aws3.lambda;fillColor=#F58534;gradientColor=none;fontColor=#FF4489;fontFamily=Comic Sans MS;" vertex="1" parent="1">
          <mxGeometry x="560" y="990" width="76.5" height="93" as="geometry" />
        </mxCell>
        <mxCell id="05j3ZdpUOvvFzqO4TqoD-5" value="AWS CLI&lt;div&gt;Transfer File&lt;/div&gt;" style="edgeStyle=orthogonalEdgeStyle;rounded=0;orthogonalLoop=1;jettySize=auto;html=1;fontColor=#FF4489;fontFamily=Comic Sans MS;flowAnimation=1;" edge="1" parent="1" source="05j3ZdpUOvvFzqO4TqoD-6" target="05j3ZdpUOvvFzqO4TqoD-2">
          <mxGeometry x="-0.368" relative="1" as="geometry">
            <Array as="points">
              <mxPoint x="240" y="1037" />
            </Array>
            <mxPoint as="offset" />
          </mxGeometry>
        </mxCell>
        <mxCell id="05j3ZdpUOvvFzqO4TqoD-6" value="Arquivo" style="strokeWidth=2;html=1;shape=mxgraph.flowchart.document2;whiteSpace=wrap;size=0.25;align=center;fontFamily=Comic Sans MS;fontColor=#FF4489;labelBackgroundColor=none;labelBorderColor=none;textShadow=1;" vertex="1" parent="1">
          <mxGeometry x="180" y="1143" width="100" height="60" as="geometry" />
        </mxCell>
        <mxCell id="05j3ZdpUOvvFzqO4TqoD-7" style="edgeStyle=orthogonalEdgeStyle;rounded=0;orthogonalLoop=1;jettySize=auto;html=1;flowAnimation=1;" edge="1" parent="1" source="05j3ZdpUOvvFzqO4TqoD-8">
          <mxGeometry relative="1" as="geometry">
            <mxPoint x="290" y="1168" as="targetPoint" />
          </mxGeometry>
        </mxCell>
        <mxCell id="05j3ZdpUOvvFzqO4TqoD-8" value="&lt;div style=&quot;&quot;&gt;&lt;font&gt;Sistema de arquivos&lt;/font&gt;&lt;/div&gt;" style="html=1;outlineConnect=0;whiteSpace=wrap;fillColor=#FF4489;verticalLabelPosition=bottom;verticalAlign=top;align=center;shape=mxgraph.archimate3.actor;fontFamily=Comic Sans MS;fontColor=#FF4489;" vertex="1" parent="1">
          <mxGeometry x="390" y="1143" width="26.5" height="50" as="geometry" />
        </mxCell>
        <mxCell id="05j3ZdpUOvvFzqO4TqoD-9" value="Dynamo" style="outlineConnect=0;dashed=0;verticalLabelPosition=bottom;verticalAlign=top;align=center;html=1;shape=mxgraph.aws3.dynamo_db;fillColor=#2E73B8;gradientColor=none;fontColor=#FF4489;fontFamily=Comic Sans MS;" vertex="1" parent="1">
          <mxGeometry x="720" y="996" width="72" height="81" as="geometry" />
        </mxCell>
        <mxCell id="05j3ZdpUOvvFzqO4TqoD-10" value="" style="rounded=0;whiteSpace=wrap;html=1;strokeColor=#FF4489;fontColor=#5C5C5C;fillColor=none;strokeWidth=8;" vertex="1" parent="1">
          <mxGeometry x="90" y="937" width="720" height="350" as="geometry" />
        </mxCell>
        <mxCell id="05j3ZdpUOvvFzqO4TqoD-11" value="" style="rounded=0;whiteSpace=wrap;html=1;strokeColor=#009A8F;fontColor=#5C5C5C;fillColor=none;strokeWidth=8;" vertex="1" parent="1">
          <mxGeometry x="-20" y="380" width="830" height="530" as="geometry" />
        </mxCell>
      </root>
    </mxGraphModel>
  </diagram>
</mxfile>
